<?xml version="1.0" encoding="UTF-8" standalone="no"?>
<svg width="276.482mm" height="181.404mm"
 viewBox="0 0 1611 1057"
 xmlns="http://www.w3.org/2000/svg" xmlns:xlink="http://www.w3.org/1999/xlink"  version="1.2" baseProfile="tiny">
<title>Qt SVG Document</title>
<desc>Generated with Qt</desc>
<defs>
</defs>
<g fill="none" stroke="black" stroke-width="1" fill-rule="evenodd" stroke-linecap="square" stroke-linejoin="bevel" >

<g fill="#000000" fill-opacity="1" stroke="none" transform="matrix(1,0,0,1,0,0)"
font-family=".SF NS Text" font-size="26.7222" font-weight="400" font-style="normal" 
>
<path vector-effect="none" fill-rule="evenodd" d="M0,0 L1611,0 L1611,1057 L0,1057 L0,0"/>
</g>

<g fill="none" stroke="#000000" stroke-opacity="1" stroke-width="1" stroke-linecap="square" stroke-linejoin="bevel" transform="matrix(1,0,0,1,0,0)"
font-family=".SF NS Text" font-size="26.7222" font-weight="400" font-style="normal" 
>
</g>

<g fill="#000000" fill-opacity="1" stroke="#000000" stroke-opacity="1" stroke-width="1" stroke-linecap="butt" stroke-linejoin="miter" stroke-miterlimit="2" transform="matrix(1,0,0,1,0,0)"
font-family=".SF NS Text" font-size="26.7222" font-weight="400" font-style="normal" 
>
</g>

<g fill="#000000" fill-opacity="1" stroke="#000000" stroke-opacity="1" stroke-width="1" stroke-linecap="butt" stroke-linejoin="miter" stroke-miterlimit="2" transform="matrix(1,0,0,1,0,0)"
font-family=".SF NS Text" font-size="26.7222" font-weight="400" font-style="normal" 
>
</g>

<g fill="#ffffff" fill-opacity="1" stroke="#ffffff" stroke-opacity="1" stroke-width="1" stroke-linecap="square" stroke-linejoin="bevel" transform="matrix(1,0,0,1,0,0)"
font-family=".SF NS Text" font-size="26.7222" font-weight="400" font-style="normal" 
>
</g>

<g fill="none" stroke="#ffffff" stroke-opacity="1" stroke-width="1" stroke-linecap="square" stroke-linejoin="bevel" transform="matrix(1,0,0,1,1115.16,962.353)"
font-family=".SF NS Text" font-size="26.7222" font-weight="400" font-style="normal" 
>
<path vector-effect="non-scaling-stroke" fill-rule="evenodd" d="M16.0421,0 C16.0421,-8.85982 8.85982,-16.0421 0,-16.0421 C-8.85982,-16.0421 -16.0421,-8.85982 -16.0421,0 C-16.0421,8.85982 -8.85982,16.0421 0,16.0421 C8.85982,16.0421 16.0421,8.85982 16.0421,0 "/>
</g>

<g fill="#ffffff" fill-opacity="1" stroke="#ffffff" stroke-opacity="1" stroke-width="1" stroke-linecap="square" stroke-linejoin="bevel" transform="matrix(1,0,0,1,0,0)"
font-family=".SF NS Text" font-size="26.7222" font-weight="400" font-style="normal" 
>
</g>

<g fill="none" stroke="#ffffff" stroke-opacity="1" stroke-width="1" stroke-linecap="square" stroke-linejoin="bevel" transform="matrix(1,0,0,1,557.467,989.418)"
font-family=".SF NS Text" font-size="26.7222" font-weight="400" font-style="normal" 
>
<path vector-effect="non-scaling-stroke" fill-rule="evenodd" d="M3.21486,0 C3.21486,-1.77552 1.77552,-3.21486 0,-3.21486 C-1.77552,-3.21486 -3.21486,-1.77552 -3.21486,0 C-3.21486,1.77552 -1.77552,3.21486 0,3.21486 C1.77552,3.21486 3.21486,1.77552 3.21486,0 "/>
</g>

<g fill="#ffffff" fill-opacity="1" stroke="#ffffff" stroke-opacity="1" stroke-width="1" stroke-linecap="square" stroke-linejoin="bevel" transform="matrix(1,0,0,1,0,0)"
font-family=".SF NS Text" font-size="26.7222" font-weight="400" font-style="normal" 
>
</g>

<g fill="none" stroke="#ffffff" stroke-opacity="1" stroke-width="1" stroke-linecap="square" stroke-linejoin="bevel" transform="matrix(1,0,0,1,557.467,1034.83)"
font-family=".SF NS Text" font-size="26.7222" font-weight="400" font-style="normal" 
>
<path vector-effect="non-scaling-stroke" fill-rule="evenodd" d="M3.21486,0 C3.21486,-1.77552 1.77552,-3.21486 0,-3.21486 C-1.77552,-3.21486 -3.21486,-1.77552 -3.21486,0 C-3.21486,1.77552 -1.77552,3.21486 0,3.21486 C1.77552,3.21486 3.21486,1.77552 3.21486,0 "/>
</g>

<g fill="#ffffff" fill-opacity="1" stroke="#ffffff" stroke-opacity="1" stroke-width="1" stroke-linecap="square" stroke-linejoin="bevel" transform="matrix(1,0,0,1,0,0)"
font-family=".SF NS Text" font-size="26.7222" font-weight="400" font-style="normal" 
>
</g>

<g fill="none" stroke="#ffffff" stroke-opacity="1" stroke-width="1" stroke-linecap="square" stroke-linejoin="bevel" transform="matrix(1,0,0,1,948.688,989.418)"
font-family=".SF NS Text" font-size="26.7222" font-weight="400" font-style="normal" 
>
<path vector-effect="non-scaling-stroke" fill-rule="evenodd" d="M3.21486,0 C3.21486,-1.77552 1.77552,-3.21486 0,-3.21486 C-1.77552,-3.21486 -3.21486,-1.77552 -3.21486,0 C-3.21486,1.77552 -1.77552,3.21486 0,3.21486 C1.77552,3.21486 3.21486,1.77552 3.21486,0 "/>
</g>

<g fill="#ffffff" fill-opacity="1" stroke="#ffffff" stroke-opacity="1" stroke-width="1" stroke-linecap="square" stroke-linejoin="bevel" transform="matrix(1,0,0,1,0,0)"
font-family=".SF NS Text" font-size="26.7222" font-weight="400" font-style="normal" 
>
</g>

<g fill="none" stroke="#ffffff" stroke-opacity="1" stroke-width="1" stroke-linecap="square" stroke-linejoin="bevel" transform="matrix(1,0,0,1,948.688,1034.83)"
font-family=".SF NS Text" font-size="26.7222" font-weight="400" font-style="normal" 
>
<path vector-effect="non-scaling-stroke" fill-rule="evenodd" d="M3.21486,0 C3.21486,-1.77552 1.77552,-3.21486 0,-3.21486 C-1.77552,-3.21486 -3.21486,-1.77552 -3.21486,0 C-3.21486,1.77552 -1.77552,3.21486 0,3.21486 C1.77552,3.21486 3.21486,1.77552 3.21486,0 "/>
</g>

<g fill="#ffffff" fill-opacity="1" stroke="#ffffff" stroke-opacity="1" stroke-width="1" stroke-linecap="square" stroke-linejoin="bevel" transform="matrix(1,0,0,1,0,0)"
font-family=".SF NS Text" font-size="26.7222" font-weight="400" font-style="normal" 
>
</g>

<g fill="none" stroke="#ffffff" stroke-opacity="1" stroke-width="1" stroke-linecap="square" stroke-linejoin="bevel" transform="matrix(1,0,0,1,1049.2,788.191)"
font-family=".SF NS Text" font-size="26.7222" font-weight="400" font-style="normal" 
>
<path vector-effect="non-scaling-stroke" fill-rule="evenodd" d="M3.21486,0 C3.21486,-1.77552 1.77552,-3.21486 0,-3.21486 C-1.77552,-3.21486 -3.21486,-1.77552 -3.21486,0 C-3.21486,1.77552 -1.77552,3.21486 0,3.21486 C1.77552,3.21486 3.21486,1.77552 3.21486,0 "/>
</g>

<g fill="#ffffff" fill-opacity="1" stroke="#ffffff" stroke-opacity="1" stroke-width="1" stroke-linecap="square" stroke-linejoin="bevel" transform="matrix(1,0,0,1,0,0)"
font-family=".SF NS Text" font-size="26.7222" font-weight="400" font-style="normal" 
>
</g>

<g fill="none" stroke="#ffffff" stroke-opacity="1" stroke-width="1" stroke-linecap="square" stroke-linejoin="bevel" transform="matrix(1,0,0,1,991.605,824.406)"
font-family=".SF NS Text" font-size="26.7222" font-weight="400" font-style="normal" 
>
<path vector-effect="non-scaling-stroke" fill-rule="evenodd" d="M3.21486,0 C3.21486,-1.77552 1.77552,-3.21486 0,-3.21486 C-1.77552,-3.21486 -3.21486,-1.77552 -3.21486,0 C-3.21486,1.77552 -1.77552,3.21486 0,3.21486 C1.77552,3.21486 3.21486,1.77552 3.21486,0 "/>
</g>

<g fill="#ffffff" fill-opacity="1" stroke="#ffffff" stroke-opacity="1" stroke-width="1" stroke-linecap="square" stroke-linejoin="bevel" transform="matrix(1,0,0,1,0,0)"
font-family=".SF NS Text" font-size="26.7222" font-weight="400" font-style="normal" 
>
</g>

<g fill="none" stroke="#ffffff" stroke-opacity="1" stroke-width="1" stroke-linecap="square" stroke-linejoin="bevel" transform="matrix(1,0,0,1,1020.4,806.298)"
font-family=".SF NS Text" font-size="26.7222" font-weight="400" font-style="normal" 
>
<path vector-effect="non-scaling-stroke" fill-rule="evenodd" d="M3.21486,0 C3.21486,-1.77552 1.77552,-3.21486 0,-3.21486 C-1.77552,-3.21486 -3.21486,-1.77552 -3.21486,0 C-3.21486,1.77552 -1.77552,3.21486 0,3.21486 C1.77552,3.21486 3.21486,1.77552 3.21486,0 "/>
</g>

<g fill="#ffffff" fill-opacity="1" stroke="#ffffff" stroke-opacity="1" stroke-width="1" stroke-linecap="square" stroke-linejoin="bevel" transform="matrix(1,0,0,1,0,0)"
font-family=".SF NS Text" font-size="26.7222" font-weight="400" font-style="normal" 
>
</g>

<g fill="none" stroke="#ffffff" stroke-opacity="1" stroke-width="1" stroke-linecap="square" stroke-linejoin="bevel" transform="matrix(-1,0,0,-1,461.228,566.355)"
font-family=".SF NS Text" font-size="26.7222" font-weight="400" font-style="normal" 
>
<path vector-effect="non-scaling-stroke" fill-rule="evenodd" d="M3.73931,0 C3.73931,-2.06517 2.06517,-3.73931 0,-3.73931 C-2.06517,-3.73931 -3.73931,-2.06517 -3.73931,0 "/>
</g>

<g fill="#ffffff" fill-opacity="1" stroke="#ffffff" stroke-opacity="1" stroke-width="1" stroke-linecap="square" stroke-linejoin="bevel" transform="matrix(1,0,0,1,0,0)"
font-family=".SF NS Text" font-size="26.7222" font-weight="400" font-style="normal" 
>
<polyline fill="none" vector-effect="non-scaling-stroke" points="464.967,499.21 464.967,566.355 " />
<polyline fill="none" vector-effect="non-scaling-stroke" points="457.488,499.21 457.488,566.355 " />
<polyline fill="none" vector-effect="non-scaling-stroke" points="387.63,538.331 387.63,605.476 " />
</g>

<g fill="none" stroke="#ffffff" stroke-opacity="1" stroke-width="1" stroke-linecap="square" stroke-linejoin="bevel" transform="matrix(1,0,0,1,461.228,499.21)"
font-family=".SF NS Text" font-size="26.7222" font-weight="400" font-style="normal" 
>
<path vector-effect="non-scaling-stroke" fill-rule="evenodd" d="M3.73931,0 C3.73931,-2.06517 2.06517,-3.73931 0,-3.73931 C-2.06517,-3.73931 -3.73931,-2.06517 -3.73931,0 "/>
</g>

<g fill="#ffffff" fill-opacity="1" stroke="#ffffff" stroke-opacity="1" stroke-width="1" stroke-linecap="square" stroke-linejoin="bevel" transform="matrix(1,0,0,1,0,0)"
font-family=".SF NS Text" font-size="26.7222" font-weight="400" font-style="normal" 
>
</g>

<g fill="none" stroke="#ffffff" stroke-opacity="1" stroke-width="1" stroke-linecap="square" stroke-linejoin="bevel" transform="matrix(1,0,0,1,391.369,538.331)"
font-family=".SF NS Text" font-size="26.7222" font-weight="400" font-style="normal" 
>
<path vector-effect="non-scaling-stroke" fill-rule="evenodd" d="M3.73931,0 C3.73931,-2.06517 2.06517,-3.73931 0,-3.73931 C-2.06517,-3.73931 -3.73931,-2.06517 -3.73931,0 "/>
</g>

<g fill="#ffffff" fill-opacity="1" stroke="#ffffff" stroke-opacity="1" stroke-width="1" stroke-linecap="square" stroke-linejoin="bevel" transform="matrix(1,0,0,1,0,0)"
font-family=".SF NS Text" font-size="26.7222" font-weight="400" font-style="normal" 
>
<polyline fill="none" vector-effect="non-scaling-stroke" points="395.109,538.331 395.109,605.476 " />
</g>

<g fill="none" stroke="#ffffff" stroke-opacity="1" stroke-width="1" stroke-linecap="square" stroke-linejoin="bevel" transform="matrix(-1,0,0,-1,391.369,605.476)"
font-family=".SF NS Text" font-size="26.7222" font-weight="400" font-style="normal" 
>
<path vector-effect="non-scaling-stroke" fill-rule="evenodd" d="M3.73931,0 C3.73931,-2.06517 2.06517,-3.73931 0,-3.73931 C-2.06517,-3.73931 -3.73931,-2.06517 -3.73931,0 "/>
</g>

<g fill="#ffffff" fill-opacity="1" stroke="#ffffff" stroke-opacity="1" stroke-width="1" stroke-linecap="square" stroke-linejoin="bevel" transform="matrix(1,0,0,1,0,0)"
font-family=".SF NS Text" font-size="26.7222" font-weight="400" font-style="normal" 
>
</g>

<g fill="none" stroke="#ffffff" stroke-opacity="1" stroke-width="1" stroke-linecap="square" stroke-linejoin="bevel" transform="matrix(1,0,0,1,605.528,743.086)"
font-family=".SF NS Text" font-size="26.7222" font-weight="400" font-style="normal" 
>
<path vector-effect="non-scaling-stroke" fill-rule="evenodd" d="M11.4816,0 C11.4816,-6.34113 6.34113,-11.4816 0,-11.4816 C-6.34113,-11.4816 -11.4816,-6.34113 -11.4816,0 C-11.4816,6.34113 -6.34113,11.4816 0,11.4816 C6.34113,11.4816 11.4816,6.34113 11.4816,0 "/>
</g>

<g fill="#ffffff" fill-opacity="1" stroke="#ffffff" stroke-opacity="1" stroke-width="1" stroke-linecap="square" stroke-linejoin="bevel" transform="matrix(1,0,0,1,0,0)"
font-family=".SF NS Text" font-size="26.7222" font-weight="400" font-style="normal" 
>
</g>

<g fill="none" stroke="#ffffff" stroke-opacity="1" stroke-width="1" stroke-linecap="square" stroke-linejoin="bevel" transform="matrix(1,0,0,1,916.604,743.086)"
font-family=".SF NS Text" font-size="26.7222" font-weight="400" font-style="normal" 
>
<path vector-effect="non-scaling-stroke" fill-rule="evenodd" d="M11.4816,0 C11.4816,-6.34113 6.34113,-11.4816 0,-11.4816 C-6.34113,-11.4816 -11.4816,-6.34113 -11.4816,0 C-11.4816,6.34113 -6.34113,11.4816 0,11.4816 C6.34113,11.4816 11.4816,6.34113 11.4816,0 "/>
</g>

<g fill="#ffffff" fill-opacity="1" stroke="#ffffff" stroke-opacity="1" stroke-width="1" stroke-linecap="square" stroke-linejoin="bevel" transform="matrix(1,0,0,1,0,0)"
font-family=".SF NS Text" font-size="26.7222" font-weight="400" font-style="normal" 
>
</g>

<g fill="none" stroke="#ffffff" stroke-opacity="1" stroke-width="1" stroke-linecap="square" stroke-linejoin="bevel" transform="matrix(1,0,0,1,472.933,788.191)"
font-family=".SF NS Text" font-size="26.7222" font-weight="400" font-style="normal" 
>
<path vector-effect="non-scaling-stroke" fill-rule="evenodd" d="M3.21486,0 C3.21486,-1.77552 1.77552,-3.21486 0,-3.21486 C-1.77552,-3.21486 -3.21486,-1.77552 -3.21486,0 C-3.21486,1.77552 -1.77552,3.21486 0,3.21486 C1.77552,3.21486 3.21486,1.77552 3.21486,0 "/>
</g>

<g fill="#ffffff" fill-opacity="1" stroke="#ffffff" stroke-opacity="1" stroke-width="1" stroke-linecap="square" stroke-linejoin="bevel" transform="matrix(1,0,0,1,0,0)"
font-family=".SF NS Text" font-size="26.7222" font-weight="400" font-style="normal" 
>
</g>

<g fill="none" stroke="#ffffff" stroke-opacity="1" stroke-width="1" stroke-linecap="square" stroke-linejoin="bevel" transform="matrix(1,0,0,1,530.527,824.406)"
font-family=".SF NS Text" font-size="26.7222" font-weight="400" font-style="normal" 
>
<path vector-effect="non-scaling-stroke" fill-rule="evenodd" d="M3.21486,0 C3.21486,-1.77552 1.77552,-3.21486 0,-3.21486 C-1.77552,-3.21486 -3.21486,-1.77552 -3.21486,0 C-3.21486,1.77552 -1.77552,3.21486 0,3.21486 C1.77552,3.21486 3.21486,1.77552 3.21486,0 "/>
</g>

<g fill="#ffffff" fill-opacity="1" stroke="#ffffff" stroke-opacity="1" stroke-width="1" stroke-linecap="square" stroke-linejoin="bevel" transform="matrix(1,0,0,1,0,0)"
font-family=".SF NS Text" font-size="26.7222" font-weight="400" font-style="normal" 
>
</g>

<g fill="none" stroke="#ffffff" stroke-opacity="1" stroke-width="1" stroke-linecap="square" stroke-linejoin="bevel" transform="matrix(1,0,0,1,501.73,806.298)"
font-family=".SF NS Text" font-size="26.7222" font-weight="400" font-style="normal" 
>
<path vector-effect="non-scaling-stroke" fill-rule="evenodd" d="M3.21486,0 C3.21486,-1.77552 1.77552,-3.21486 0,-3.21486 C-1.77552,-3.21486 -3.21486,-1.77552 -3.21486,0 C-3.21486,1.77552 -1.77552,3.21486 0,3.21486 C1.77552,3.21486 3.21486,1.77552 3.21486,0 "/>
</g>

<g fill="#ffffff" fill-opacity="1" stroke="#ffffff" stroke-opacity="1" stroke-width="1" stroke-linecap="square" stroke-linejoin="bevel" transform="matrix(1,0,0,1,0,0)"
font-family=".SF NS Text" font-size="26.7222" font-weight="400" font-style="normal" 
>
</g>

<g fill="none" stroke="#ffffff" stroke-opacity="1" stroke-width="1" stroke-linecap="square" stroke-linejoin="bevel" transform="matrix(1,0,0,1,427.472,410.543)"
font-family=".SF NS Text" font-size="26.7222" font-weight="400" font-style="normal" 
>
<path vector-effect="non-scaling-stroke" fill-rule="evenodd" d="M3.58801,0 C3.58801,-1.9816 1.9816,-3.58801 0,-3.58801 C-1.9816,-3.58801 -3.58801,-1.9816 -3.58801,0 C-3.58801,1.9816 -1.9816,3.58801 0,3.58801 C1.9816,3.58801 3.58801,1.9816 3.58801,0 "/>
</g>

<g fill="#ffffff" fill-opacity="1" stroke="#ffffff" stroke-opacity="1" stroke-width="1" stroke-linecap="square" stroke-linejoin="bevel" transform="matrix(1,0,0,1,0,0)"
font-family=".SF NS Text" font-size="26.7222" font-weight="400" font-style="normal" 
>
</g>

<g fill="none" stroke="#ffffff" stroke-opacity="1" stroke-width="1" stroke-linecap="square" stroke-linejoin="bevel" transform="matrix(1,0,0,1,449.717,631.564)"
font-family=".SF NS Text" font-size="26.7222" font-weight="400" font-style="normal" 
>
<path vector-effect="non-scaling-stroke" fill-rule="evenodd" d="M3.58801,0 C3.58801,-1.9816 1.9816,-3.58801 0,-3.58801 C-1.9816,-3.58801 -3.58801,-1.9816 -3.58801,0 C-3.58801,1.9816 -1.9816,3.58801 0,3.58801 C1.9816,3.58801 3.58801,1.9816 3.58801,0 "/>
</g>

<g fill="#ffffff" fill-opacity="1" stroke="#ffffff" stroke-opacity="1" stroke-width="1" stroke-linecap="square" stroke-linejoin="bevel" transform="matrix(1,0,0,1,0,0)"
font-family=".SF NS Text" font-size="26.7222" font-weight="400" font-style="normal" 
>
</g>

<g fill="none" stroke="#ffffff" stroke-opacity="1" stroke-width="1" stroke-linecap="square" stroke-linejoin="bevel" transform="matrix(1,0,0,1,511.165,673.967)"
font-family=".SF NS Text" font-size="26.7222" font-weight="400" font-style="normal" 
>
<path vector-effect="non-scaling-stroke" fill-rule="evenodd" d="M3.58801,0 C3.58801,-1.9816 1.9816,-3.58801 0,-3.58801 C-1.9816,-3.58801 -3.58801,-1.9816 -3.58801,0 C-3.58801,1.9816 -1.9816,3.58801 0,3.58801 C1.9816,3.58801 3.58801,1.9816 3.58801,0 "/>
</g>

<g fill="#ffffff" fill-opacity="1" stroke="#ffffff" stroke-opacity="1" stroke-width="1" stroke-linecap="square" stroke-linejoin="bevel" transform="matrix(1,0,0,1,0,0)"
font-family=".SF NS Text" font-size="26.7222" font-weight="400" font-style="normal" 
>
</g>

<g fill="none" stroke="#ffffff" stroke-opacity="1" stroke-width="1" stroke-linecap="square" stroke-linejoin="bevel" transform="matrix(1,0,0,1,572.427,716.241)"
font-family=".SF NS Text" font-size="26.7222" font-weight="400" font-style="normal" 
>
<path vector-effect="non-scaling-stroke" fill-rule="evenodd" d="M3.58801,0 C3.58801,-1.9816 1.9816,-3.58801 0,-3.58801 C-1.9816,-3.58801 -3.58801,-1.9816 -3.58801,0 C-3.58801,1.9816 -1.9816,3.58801 0,3.58801 C1.9816,3.58801 3.58801,1.9816 3.58801,0 "/>
</g>

<g fill="#ffffff" fill-opacity="1" stroke="#ffffff" stroke-opacity="1" stroke-width="1" stroke-linecap="square" stroke-linejoin="bevel" transform="matrix(1,0,0,1,0,0)"
font-family=".SF NS Text" font-size="26.7222" font-weight="400" font-style="normal" 
>
</g>

<g fill="none" stroke="#ffffff" stroke-opacity="1" stroke-width="1" stroke-linecap="square" stroke-linejoin="bevel" transform="matrix(1,0,0,1,541.796,695.104)"
font-family=".SF NS Text" font-size="26.7222" font-weight="400" font-style="normal" 
>
<path vector-effect="non-scaling-stroke" fill-rule="evenodd" d="M11.4816,0 C11.4816,-6.34113 6.34113,-11.4816 0,-11.4816 C-6.34113,-11.4816 -11.4816,-6.34113 -11.4816,0 C-11.4816,6.34113 -6.34113,11.4816 0,11.4816 C6.34113,11.4816 11.4816,6.34113 11.4816,0 "/>
</g>

<g fill="#ffffff" fill-opacity="1" stroke="#ffffff" stroke-opacity="1" stroke-width="1" stroke-linecap="square" stroke-linejoin="bevel" transform="matrix(1,0,0,1,0,0)"
font-family=".SF NS Text" font-size="26.7222" font-weight="400" font-style="normal" 
>
</g>

<g fill="none" stroke="#ffffff" stroke-opacity="1" stroke-width="1" stroke-linecap="square" stroke-linejoin="bevel" transform="matrix(1,0,0,1,480.395,652.733)"
font-family=".SF NS Text" font-size="26.7222" font-weight="400" font-style="normal" 
>
<path vector-effect="non-scaling-stroke" fill-rule="evenodd" d="M11.4816,0 C11.4816,-6.34113 6.34113,-11.4816 0,-11.4816 C-6.34113,-11.4816 -11.4816,-6.34113 -11.4816,0 C-11.4816,6.34113 -6.34113,11.4816 0,11.4816 C6.34113,11.4816 11.4816,6.34113 11.4816,0 "/>
</g>

<g fill="#ffffff" fill-opacity="1" stroke="#ffffff" stroke-opacity="1" stroke-width="1" stroke-linecap="square" stroke-linejoin="bevel" transform="matrix(1,0,0,1,0,0)"
font-family=".SF NS Text" font-size="26.7222" font-weight="400" font-style="normal" 
>
</g>

<g fill="none" stroke="#ffffff" stroke-opacity="1" stroke-width="1" stroke-linecap="square" stroke-linejoin="bevel" transform="matrix(1,0,0,1,526.193,459.832)"
font-family=".SF NS Text" font-size="26.7222" font-weight="400" font-style="normal" 
>
<path vector-effect="non-scaling-stroke" fill-rule="evenodd" d="M11.4816,0 C11.4816,-6.34113 6.34113,-11.4816 0,-11.4816 C-6.34113,-11.4816 -11.4816,-6.34113 -11.4816,0 C-11.4816,6.34113 -6.34113,11.4816 0,11.4816 C6.34113,11.4816 11.4816,6.34113 11.4816,0 "/>
</g>

<g fill="#ffffff" fill-opacity="1" stroke="#ffffff" stroke-opacity="1" stroke-width="1" stroke-linecap="square" stroke-linejoin="bevel" transform="matrix(1,0,0,1,0,0)"
font-family=".SF NS Text" font-size="26.7222" font-weight="400" font-style="normal" 
>
</g>

<g fill="none" stroke="#ffffff" stroke-opacity="1" stroke-width="1" stroke-linecap="square" stroke-linejoin="bevel" transform="matrix(1,0,0,1,555.784,552.832)"
font-family=".SF NS Text" font-size="26.7222" font-weight="400" font-style="normal" 
>
<path vector-effect="non-scaling-stroke" fill-rule="evenodd" d="M11.4816,0 C11.4816,-6.34113 6.34113,-11.4816 0,-11.4816 C-6.34113,-11.4816 -11.4816,-6.34113 -11.4816,0 C-11.4816,6.34113 -6.34113,11.4816 0,11.4816 C6.34113,11.4816 11.4816,6.34113 11.4816,0 "/>
</g>

<g fill="#ffffff" fill-opacity="1" stroke="#ffffff" stroke-opacity="1" stroke-width="1" stroke-linecap="square" stroke-linejoin="bevel" transform="matrix(1,0,0,1,0,0)"
font-family=".SF NS Text" font-size="26.7222" font-weight="400" font-style="normal" 
>
<polyline fill="none" vector-effect="non-scaling-stroke" points="528.119,522.475 555.411,513.792 556.041,513.571 556.657,513.313 557.258,513.021 557.84,512.694 558.402,512.333 558.943,511.941 559.46,511.518 559.951,511.065 560.415,510.585 560.85,510.079 561.256,509.548 561.629,508.994 561.97,508.42 562.277,507.827 562.549,507.216 562.785,506.592 562.984,505.954 563.145,505.306 563.269,504.65 563.355,503.987 563.401,503.321 563.409,502.653 563.379,501.986 563.309,501.322 563.201,500.663 563.055,500.011 562.871,499.369 562.65,498.739 562.393,498.123 562.1,497.522 561.773,496.94 561.413,496.377 561.02,495.837 560.597,495.32 560.144,494.829 559.664,494.365 559.158,493.93 558.627,493.524 558.073,493.151 557.499,492.81 556.906,492.503 556.296,492.231 555.671,491.995 555.033,491.796 554.385,491.634 553.729,491.511 553.067,491.425 552.4,491.378 551.732,491.37 551.065,491.401 550.401,491.471 549.742,491.579 549.09,491.725 548.448,491.909 521.156,500.593 520.526,500.814 519.91,501.071 519.309,501.364 518.727,501.691 518.164,502.051 517.624,502.444 517.107,502.867 516.616,503.319 516.152,503.8 515.717,504.306 515.311,504.837 514.938,505.391 514.597,505.965 514.29,506.558 514.018,507.168 513.782,507.793 513.583,508.431 513.422,509.079 513.298,509.735 513.212,510.397 513.165,511.063 513.158,511.731 513.188,512.398 513.258,513.063 513.366,513.722 513.512,514.373 513.696,515.016 513.917,515.646 514.174,516.262 514.467,516.863 514.794,517.445 515.154,518.007 515.547,518.548 515.97,519.064 516.422,519.556 516.903,520.02 517.409,520.455 517.94,520.86 518.494,521.234 519.068,521.575 519.661,521.882 520.271,522.153 520.896,522.389 521.534,522.588 522.182,522.75 522.838,522.874 523.5,522.959 524.167,523.006 524.835,523.014 525.502,522.983 526.166,522.914 526.825,522.806 527.477,522.659 528.119,522.475 " />
</g>

<g fill="none" stroke="#ffffff" stroke-opacity="1" stroke-width="1" stroke-linecap="square" stroke-linejoin="bevel" transform="matrix(1,0,0,1,531.543,560.709)"
font-family=".SF NS Text" font-size="26.7222" font-weight="400" font-style="normal" 
>
<path vector-effect="non-scaling-stroke" fill-rule="evenodd" d="M10.531,0 C10.531,-5.81613 5.81613,-10.531 0,-10.531 C-5.81613,-10.531 -10.531,-5.81613 -10.531,0 C-10.531,5.81613 -5.81613,10.531 0,10.531 C5.81613,10.531 10.531,5.81613 10.531,0 "/>
</g>

<g fill="#ffffff" fill-opacity="1" stroke="#ffffff" stroke-opacity="1" stroke-width="1" stroke-linecap="square" stroke-linejoin="bevel" transform="matrix(1,0,0,1,0,0)"
font-family=".SF NS Text" font-size="26.7222" font-weight="400" font-style="normal" 
>
</g>

<g fill="none" stroke="#ffffff" stroke-opacity="1" stroke-width="1" stroke-linecap="square" stroke-linejoin="bevel" transform="matrix(1,0,0,1,504.12,454.668)"
font-family=".SF NS Text" font-size="26.7222" font-weight="400" font-style="normal" 
>
<path vector-effect="non-scaling-stroke" fill-rule="evenodd" d="M10.531,0 C10.531,-5.81613 5.81613,-10.531 0,-10.531 C-5.81613,-10.531 -10.531,-5.81613 -10.531,0 C-10.531,5.81613 -5.81613,10.531 0,10.531 C5.81613,10.531 10.531,5.81613 10.531,0 "/>
</g>

<g fill="#ffffff" fill-opacity="1" stroke="#ffffff" stroke-opacity="1" stroke-width="1" stroke-linecap="square" stroke-linejoin="bevel" transform="matrix(1,0,0,1,0,0)"
font-family=".SF NS Text" font-size="26.7222" font-weight="400" font-style="normal" 
>
</g>

<g fill="none" stroke="#ffffff" stroke-opacity="1" stroke-width="1" stroke-linecap="square" stroke-linejoin="bevel" transform="matrix(1,0,0,1,506.506,427.603)"
font-family=".SF NS Text" font-size="26.7222" font-weight="400" font-style="normal" 
>
<path vector-effect="non-scaling-stroke" fill-rule="evenodd" d="M2.75559,0 C2.75559,-1.52187 1.52187,-2.75559 0,-2.75559 C-1.52187,-2.75559 -2.75559,-1.52187 -2.75559,0 C-2.75559,1.52187 -1.52187,2.75559 0,2.75559 C1.52187,2.75559 2.75559,1.52187 2.75559,0 "/>
</g>

<g fill="#ffffff" fill-opacity="1" stroke="#ffffff" stroke-opacity="1" stroke-width="1" stroke-linecap="square" stroke-linejoin="bevel" transform="matrix(1,0,0,1,0,0)"
font-family=".SF NS Text" font-size="26.7222" font-weight="400" font-style="normal" 
>
</g>

<g fill="none" stroke="#ffffff" stroke-opacity="1" stroke-width="1" stroke-linecap="square" stroke-linejoin="bevel" transform="matrix(1,0,0,1,502.262,505.254)"
font-family=".SF NS Text" font-size="26.7222" font-weight="400" font-style="normal" 
>
<path vector-effect="non-scaling-stroke" fill-rule="evenodd" d="M2.75559,0 C2.75559,-1.52187 1.52187,-2.75559 0,-2.75559 C-1.52187,-2.75559 -2.75559,-1.52187 -2.75559,0 C-2.75559,1.52187 -1.52187,2.75559 0,2.75559 C1.52187,2.75559 2.75559,1.52187 2.75559,0 "/>
</g>

<g fill="#ffffff" fill-opacity="1" stroke="#ffffff" stroke-opacity="1" stroke-width="1" stroke-linecap="square" stroke-linejoin="bevel" transform="matrix(1,0,0,1,0,0)"
font-family=".SF NS Text" font-size="26.7222" font-weight="400" font-style="normal" 
>
</g>

<g fill="none" stroke="#ffffff" stroke-opacity="1" stroke-width="1" stroke-linecap="square" stroke-linejoin="bevel" transform="matrix(1,0,0,1,507.1,552.244)"
font-family=".SF NS Text" font-size="26.7222" font-weight="400" font-style="normal" 
>
<path vector-effect="non-scaling-stroke" fill-rule="evenodd" d="M2.75559,0 C2.75559,-1.52187 1.52187,-2.75559 0,-2.75559 C-1.52187,-2.75559 -2.75559,-1.52187 -2.75559,0 C-2.75559,1.52187 -1.52187,2.75559 0,2.75559 C1.52187,2.75559 2.75559,1.52187 2.75559,0 "/>
</g>

<g fill="#ffffff" fill-opacity="1" stroke="#ffffff" stroke-opacity="1" stroke-width="1" stroke-linecap="square" stroke-linejoin="bevel" transform="matrix(1,0,0,1,0,0)"
font-family=".SF NS Text" font-size="26.7222" font-weight="400" font-style="normal" 
>
</g>

<g fill="none" stroke="#ffffff" stroke-opacity="1" stroke-width="1" stroke-linecap="square" stroke-linejoin="bevel" transform="matrix(1,0,0,1,567.395,594.041)"
font-family=".SF NS Text" font-size="26.7222" font-weight="400" font-style="normal" 
>
<path vector-effect="non-scaling-stroke" fill-rule="evenodd" d="M2.75559,0 C2.75559,-1.52187 1.52187,-2.75559 0,-2.75559 C-1.52187,-2.75559 -2.75559,-1.52187 -2.75559,0 C-2.75559,1.52187 -1.52187,2.75559 0,2.75559 C1.52187,2.75559 2.75559,1.52187 2.75559,0 "/>
</g>

<g fill="#ffffff" fill-opacity="1" stroke="#ffffff" stroke-opacity="1" stroke-width="1" stroke-linecap="square" stroke-linejoin="bevel" transform="matrix(1,0,0,1,0,0)"
font-family=".SF NS Text" font-size="26.7222" font-weight="400" font-style="normal" 
>
</g>

<g fill="none" stroke="#ffffff" stroke-opacity="1" stroke-width="1" stroke-linecap="square" stroke-linejoin="bevel" transform="matrix(-1,0,0,-1,1061.88,566.521)"
font-family=".SF NS Text" font-size="26.7222" font-weight="400" font-style="normal" 
>
<path vector-effect="non-scaling-stroke" fill-rule="evenodd" d="M3.73931,0 C3.73931,-2.06517 2.06517,-3.73931 0,-3.73931 C-2.06517,-3.73931 -3.73931,-2.06517 -3.73931,0 "/>
</g>

<g fill="#ffffff" fill-opacity="1" stroke="#ffffff" stroke-opacity="1" stroke-width="1" stroke-linecap="square" stroke-linejoin="bevel" transform="matrix(1,0,0,1,0,0)"
font-family=".SF NS Text" font-size="26.7222" font-weight="400" font-style="normal" 
>
<polyline fill="none" vector-effect="non-scaling-stroke" points="1058.14,499.376 1058.14,566.521 " />
<polyline fill="none" vector-effect="non-scaling-stroke" points="1065.62,499.376 1065.62,566.521 " />
<polyline fill="none" vector-effect="non-scaling-stroke" points="1135.48,538.496 1135.48,605.641 " />
</g>

<g fill="none" stroke="#ffffff" stroke-opacity="1" stroke-width="1" stroke-linecap="square" stroke-linejoin="bevel" transform="matrix(1,0,0,1,1061.88,499.376)"
font-family=".SF NS Text" font-size="26.7222" font-weight="400" font-style="normal" 
>
<path vector-effect="non-scaling-stroke" fill-rule="evenodd" d="M3.73931,0 C3.73931,-2.06517 2.06517,-3.73931 0,-3.73931 C-2.06517,-3.73931 -3.73931,-2.06517 -3.73931,0 "/>
</g>

<g fill="#ffffff" fill-opacity="1" stroke="#ffffff" stroke-opacity="1" stroke-width="1" stroke-linecap="square" stroke-linejoin="bevel" transform="matrix(1,0,0,1,0,0)"
font-family=".SF NS Text" font-size="26.7222" font-weight="400" font-style="normal" 
>
</g>

<g fill="none" stroke="#ffffff" stroke-opacity="1" stroke-width="1" stroke-linecap="square" stroke-linejoin="bevel" transform="matrix(1,0,0,1,1131.74,538.496)"
font-family=".SF NS Text" font-size="26.7222" font-weight="400" font-style="normal" 
>
<path vector-effect="non-scaling-stroke" fill-rule="evenodd" d="M3.73931,0 C3.73931,-2.06517 2.06517,-3.73931 0,-3.73931 C-2.06517,-3.73931 -3.73931,-2.06517 -3.73931,0 "/>
</g>

<g fill="#ffffff" fill-opacity="1" stroke="#ffffff" stroke-opacity="1" stroke-width="1" stroke-linecap="square" stroke-linejoin="bevel" transform="matrix(1,0,0,1,0,0)"
font-family=".SF NS Text" font-size="26.7222" font-weight="400" font-style="normal" 
>
<polyline fill="none" vector-effect="non-scaling-stroke" points="1128,538.496 1128,605.641 " />
</g>

<g fill="none" stroke="#ffffff" stroke-opacity="1" stroke-width="1" stroke-linecap="square" stroke-linejoin="bevel" transform="matrix(-1,0,0,-1,1131.74,605.641)"
font-family=".SF NS Text" font-size="26.7222" font-weight="400" font-style="normal" 
>
<path vector-effect="non-scaling-stroke" fill-rule="evenodd" d="M3.73931,0 C3.73931,-2.06517 2.06517,-3.73931 0,-3.73931 C-2.06517,-3.73931 -3.73931,-2.06517 -3.73931,0 "/>
</g>

<g fill="#ffffff" fill-opacity="1" stroke="#ffffff" stroke-opacity="1" stroke-width="1" stroke-linecap="square" stroke-linejoin="bevel" transform="matrix(1,0,0,1,0,0)"
font-family=".SF NS Text" font-size="26.7222" font-weight="400" font-style="normal" 
>
</g>

<g fill="none" stroke="#ffffff" stroke-opacity="1" stroke-width="1" stroke-linecap="square" stroke-linejoin="bevel" transform="matrix(1,0,0,1,1095.64,410.708)"
font-family=".SF NS Text" font-size="26.7222" font-weight="400" font-style="normal" 
>
<path vector-effect="non-scaling-stroke" fill-rule="evenodd" d="M3.58801,0 C3.58801,-1.9816 1.9816,-3.58801 0,-3.58801 C-1.9816,-3.58801 -3.58801,-1.9816 -3.58801,0 C-3.58801,1.9816 -1.9816,3.58801 0,3.58801 C1.9816,3.58801 3.58801,1.9816 3.58801,0 "/>
</g>

<g fill="#ffffff" fill-opacity="1" stroke="#ffffff" stroke-opacity="1" stroke-width="1" stroke-linecap="square" stroke-linejoin="bevel" transform="matrix(1,0,0,1,0,0)"
font-family=".SF NS Text" font-size="26.7222" font-weight="400" font-style="normal" 
>
</g>

<g fill="none" stroke="#ffffff" stroke-opacity="1" stroke-width="1" stroke-linecap="square" stroke-linejoin="bevel" transform="matrix(1,0,0,1,1073.39,631.73)"
font-family=".SF NS Text" font-size="26.7222" font-weight="400" font-style="normal" 
>
<path vector-effect="non-scaling-stroke" fill-rule="evenodd" d="M3.58801,0 C3.58801,-1.9816 1.9816,-3.58801 0,-3.58801 C-1.9816,-3.58801 -3.58801,-1.9816 -3.58801,0 C-3.58801,1.9816 -1.9816,3.58801 0,3.58801 C1.9816,3.58801 3.58801,1.9816 3.58801,0 "/>
</g>

<g fill="#ffffff" fill-opacity="1" stroke="#ffffff" stroke-opacity="1" stroke-width="1" stroke-linecap="square" stroke-linejoin="bevel" transform="matrix(1,0,0,1,0,0)"
font-family=".SF NS Text" font-size="26.7222" font-weight="400" font-style="normal" 
>
</g>

<g fill="none" stroke="#ffffff" stroke-opacity="1" stroke-width="1" stroke-linecap="square" stroke-linejoin="bevel" transform="matrix(1,0,0,1,1011.95,674.132)"
font-family=".SF NS Text" font-size="26.7222" font-weight="400" font-style="normal" 
>
<path vector-effect="non-scaling-stroke" fill-rule="evenodd" d="M3.58801,0 C3.58801,-1.9816 1.9816,-3.58801 0,-3.58801 C-1.9816,-3.58801 -3.58801,-1.9816 -3.58801,0 C-3.58801,1.9816 -1.9816,3.58801 0,3.58801 C1.9816,3.58801 3.58801,1.9816 3.58801,0 "/>
</g>

<g fill="#ffffff" fill-opacity="1" stroke="#ffffff" stroke-opacity="1" stroke-width="1" stroke-linecap="square" stroke-linejoin="bevel" transform="matrix(1,0,0,1,0,0)"
font-family=".SF NS Text" font-size="26.7222" font-weight="400" font-style="normal" 
>
</g>

<g fill="none" stroke="#ffffff" stroke-opacity="1" stroke-width="1" stroke-linecap="square" stroke-linejoin="bevel" transform="matrix(1,0,0,1,950.683,716.407)"
font-family=".SF NS Text" font-size="26.7222" font-weight="400" font-style="normal" 
>
<path vector-effect="non-scaling-stroke" fill-rule="evenodd" d="M3.58801,0 C3.58801,-1.9816 1.9816,-3.58801 0,-3.58801 C-1.9816,-3.58801 -3.58801,-1.9816 -3.58801,0 C-3.58801,1.9816 -1.9816,3.58801 0,3.58801 C1.9816,3.58801 3.58801,1.9816 3.58801,0 "/>
</g>

<g fill="#ffffff" fill-opacity="1" stroke="#ffffff" stroke-opacity="1" stroke-width="1" stroke-linecap="square" stroke-linejoin="bevel" transform="matrix(1,0,0,1,0,0)"
font-family=".SF NS Text" font-size="26.7222" font-weight="400" font-style="normal" 
>
</g>

<g fill="none" stroke="#ffffff" stroke-opacity="1" stroke-width="1" stroke-linecap="square" stroke-linejoin="bevel" transform="matrix(1,0,0,1,981.314,695.27)"
font-family=".SF NS Text" font-size="26.7222" font-weight="400" font-style="normal" 
>
<path vector-effect="non-scaling-stroke" fill-rule="evenodd" d="M11.4816,0 C11.4816,-6.34113 6.34113,-11.4816 0,-11.4816 C-6.34113,-11.4816 -11.4816,-6.34113 -11.4816,0 C-11.4816,6.34113 -6.34113,11.4816 0,11.4816 C6.34113,11.4816 11.4816,6.34113 11.4816,0 "/>
</g>

<g fill="#ffffff" fill-opacity="1" stroke="#ffffff" stroke-opacity="1" stroke-width="1" stroke-linecap="square" stroke-linejoin="bevel" transform="matrix(1,0,0,1,0,0)"
font-family=".SF NS Text" font-size="26.7222" font-weight="400" font-style="normal" 
>
</g>

<g fill="none" stroke="#ffffff" stroke-opacity="1" stroke-width="1" stroke-linecap="square" stroke-linejoin="bevel" transform="matrix(1,0,0,1,1042.72,652.899)"
font-family=".SF NS Text" font-size="26.7222" font-weight="400" font-style="normal" 
>
<path vector-effect="non-scaling-stroke" fill-rule="evenodd" d="M11.4816,0 C11.4816,-6.34113 6.34113,-11.4816 0,-11.4816 C-6.34113,-11.4816 -11.4816,-6.34113 -11.4816,0 C-11.4816,6.34113 -6.34113,11.4816 0,11.4816 C6.34113,11.4816 11.4816,6.34113 11.4816,0 "/>
</g>

<g fill="#ffffff" fill-opacity="1" stroke="#ffffff" stroke-opacity="1" stroke-width="1" stroke-linecap="square" stroke-linejoin="bevel" transform="matrix(1,0,0,1,0,0)"
font-family=".SF NS Text" font-size="26.7222" font-weight="400" font-style="normal" 
>
</g>

<g fill="none" stroke="#ffffff" stroke-opacity="1" stroke-width="1" stroke-linecap="square" stroke-linejoin="bevel" transform="matrix(1,0,0,1,996.917,459.998)"
font-family=".SF NS Text" font-size="26.7222" font-weight="400" font-style="normal" 
>
<path vector-effect="non-scaling-stroke" fill-rule="evenodd" d="M11.4816,0 C11.4816,-6.34113 6.34113,-11.4816 0,-11.4816 C-6.34113,-11.4816 -11.4816,-6.34113 -11.4816,0 C-11.4816,6.34113 -6.34113,11.4816 0,11.4816 C6.34113,11.4816 11.4816,6.34113 11.4816,0 "/>
</g>

<g fill="#ffffff" fill-opacity="1" stroke="#ffffff" stroke-opacity="1" stroke-width="1" stroke-linecap="square" stroke-linejoin="bevel" transform="matrix(1,0,0,1,0,0)"
font-family=".SF NS Text" font-size="26.7222" font-weight="400" font-style="normal" 
>
</g>

<g fill="none" stroke="#ffffff" stroke-opacity="1" stroke-width="1" stroke-linecap="square" stroke-linejoin="bevel" transform="matrix(1,0,0,1,967.326,552.997)"
font-family=".SF NS Text" font-size="26.7222" font-weight="400" font-style="normal" 
>
<path vector-effect="non-scaling-stroke" fill-rule="evenodd" d="M11.4816,0 C11.4816,-6.34113 6.34113,-11.4816 0,-11.4816 C-6.34113,-11.4816 -11.4816,-6.34113 -11.4816,0 C-11.4816,6.34113 -6.34113,11.4816 0,11.4816 C6.34113,11.4816 11.4816,6.34113 11.4816,0 "/>
</g>

<g fill="#ffffff" fill-opacity="1" stroke="#ffffff" stroke-opacity="1" stroke-width="1" stroke-linecap="square" stroke-linejoin="bevel" transform="matrix(1,0,0,1,0,0)"
font-family=".SF NS Text" font-size="26.7222" font-weight="400" font-style="normal" 
>
<polyline fill="none" vector-effect="non-scaling-stroke" points="994.991,522.641 967.699,513.957 967.069,513.736 966.453,513.479 965.852,513.187 965.27,512.86 964.708,512.499 964.167,512.107 963.651,511.684 963.159,511.231 962.695,510.751 962.26,510.244 961.855,509.713 961.481,509.16 961.14,508.585 960.833,507.992 960.562,507.382 960.326,506.757 960.127,506.12 959.965,505.472 959.841,504.816 959.756,504.153 959.709,503.487 959.701,502.819 959.732,502.152 959.801,501.488 959.909,500.829 960.056,500.177 960.24,499.535 960.46,498.905 960.718,498.288 961.01,497.688 961.337,497.105 961.698,496.543 962.09,496.003 962.513,495.486 962.966,494.995 963.446,494.531 963.953,494.095 964.483,493.69 965.037,493.316 965.611,492.976 966.205,492.669 966.815,492.397 967.44,492.161 968.077,491.962 968.725,491.8 969.381,491.676 970.044,491.591 970.71,491.544 971.378,491.536 972.045,491.567 972.709,491.637 973.368,491.745 974.02,491.891 974.662,492.075 1001.95,500.759 1002.58,500.98 1003.2,501.237 1003.8,501.53 1004.38,501.857 1004.95,502.217 1005.49,502.609 1006,503.032 1006.49,503.485 1006.96,503.965 1007.39,504.472 1007.8,505.003 1008.17,505.556 1008.51,506.131 1008.82,506.724 1009.09,507.334 1009.33,507.959 1009.53,508.596 1009.69,509.244 1009.81,509.901 1009.9,510.563 1009.94,511.229 1009.95,511.897 1009.92,512.564 1009.85,513.228 1009.74,513.888 1009.6,514.539 1009.41,515.181 1009.19,515.812 1008.94,516.428 1008.64,517.028 1008.32,517.611 1007.96,518.173 1007.56,518.713 1007.14,519.23 1006.69,519.721 1006.21,520.185 1005.7,520.621 1005.17,521.026 1004.62,521.4 1004.04,521.74 1003.45,522.047 1002.84,522.319 1002.21,522.555 1001.58,522.754 1000.93,522.916 1000.27,523.04 999.61,523.125 998.944,523.172 998.276,523.18 997.609,523.149 996.944,523.079 996.285,522.971 995.634,522.825 994.991,522.641 " />
</g>

<g fill="none" stroke="#ffffff" stroke-opacity="1" stroke-width="1" stroke-linecap="square" stroke-linejoin="bevel" transform="matrix(1,0,0,1,991.567,560.875)"
font-family=".SF NS Text" font-size="26.7222" font-weight="400" font-style="normal" 
>
<path vector-effect="non-scaling-stroke" fill-rule="evenodd" d="M10.531,0 C10.531,-5.81613 5.81613,-10.531 0,-10.531 C-5.81613,-10.531 -10.531,-5.81613 -10.531,0 C-10.531,5.81613 -5.81613,10.531 0,10.531 C5.81613,10.531 10.531,5.81613 10.531,0 "/>
</g>

<g fill="#ffffff" fill-opacity="1" stroke="#ffffff" stroke-opacity="1" stroke-width="1" stroke-linecap="square" stroke-linejoin="bevel" transform="matrix(1,0,0,1,0,0)"
font-family=".SF NS Text" font-size="26.7222" font-weight="400" font-style="normal" 
>
</g>

<g fill="none" stroke="#ffffff" stroke-opacity="1" stroke-width="1" stroke-linecap="square" stroke-linejoin="bevel" transform="matrix(1,0,0,1,1018.99,454.833)"
font-family=".SF NS Text" font-size="26.7222" font-weight="400" font-style="normal" 
>
<path vector-effect="non-scaling-stroke" fill-rule="evenodd" d="M10.531,0 C10.531,-5.81613 5.81613,-10.531 0,-10.531 C-5.81613,-10.531 -10.531,-5.81613 -10.531,0 C-10.531,5.81613 -5.81613,10.531 0,10.531 C5.81613,10.531 10.531,5.81613 10.531,0 "/>
</g>

<g fill="#ffffff" fill-opacity="1" stroke="#ffffff" stroke-opacity="1" stroke-width="1" stroke-linecap="square" stroke-linejoin="bevel" transform="matrix(1,0,0,1,0,0)"
font-family=".SF NS Text" font-size="26.7222" font-weight="400" font-style="normal" 
>
</g>

<g fill="none" stroke="#ffffff" stroke-opacity="1" stroke-width="1" stroke-linecap="square" stroke-linejoin="bevel" transform="matrix(1,0,0,1,1016.6,427.769)"
font-family=".SF NS Text" font-size="26.7222" font-weight="400" font-style="normal" 
>
<path vector-effect="non-scaling-stroke" fill-rule="evenodd" d="M2.75559,0 C2.75559,-1.52187 1.52187,-2.75559 0,-2.75559 C-1.52187,-2.75559 -2.75559,-1.52187 -2.75559,0 C-2.75559,1.52187 -1.52187,2.75559 0,2.75559 C1.52187,2.75559 2.75559,1.52187 2.75559,0 "/>
</g>

<g fill="#ffffff" fill-opacity="1" stroke="#ffffff" stroke-opacity="1" stroke-width="1" stroke-linecap="square" stroke-linejoin="bevel" transform="matrix(1,0,0,1,0,0)"
font-family=".SF NS Text" font-size="26.7222" font-weight="400" font-style="normal" 
>
</g>

<g fill="none" stroke="#ffffff" stroke-opacity="1" stroke-width="1" stroke-linecap="square" stroke-linejoin="bevel" transform="matrix(1,0,0,1,1020.85,505.42)"
font-family=".SF NS Text" font-size="26.7222" font-weight="400" font-style="normal" 
>
<path vector-effect="non-scaling-stroke" fill-rule="evenodd" d="M2.75559,0 C2.75559,-1.52187 1.52187,-2.75559 0,-2.75559 C-1.52187,-2.75559 -2.75559,-1.52187 -2.75559,0 C-2.75559,1.52187 -1.52187,2.75559 0,2.75559 C1.52187,2.75559 2.75559,1.52187 2.75559,0 "/>
</g>

<g fill="#ffffff" fill-opacity="1" stroke="#ffffff" stroke-opacity="1" stroke-width="1" stroke-linecap="square" stroke-linejoin="bevel" transform="matrix(1,0,0,1,0,0)"
font-family=".SF NS Text" font-size="26.7222" font-weight="400" font-style="normal" 
>
</g>

<g fill="none" stroke="#ffffff" stroke-opacity="1" stroke-width="1" stroke-linecap="square" stroke-linejoin="bevel" transform="matrix(1,0,0,1,1016.01,552.409)"
font-family=".SF NS Text" font-size="26.7222" font-weight="400" font-style="normal" 
>
<path vector-effect="non-scaling-stroke" fill-rule="evenodd" d="M2.75559,0 C2.75559,-1.52187 1.52187,-2.75559 0,-2.75559 C-1.52187,-2.75559 -2.75559,-1.52187 -2.75559,0 C-2.75559,1.52187 -1.52187,2.75559 0,2.75559 C1.52187,2.75559 2.75559,1.52187 2.75559,0 "/>
</g>

<g fill="#ffffff" fill-opacity="1" stroke="#ffffff" stroke-opacity="1" stroke-width="1" stroke-linecap="square" stroke-linejoin="bevel" transform="matrix(1,0,0,1,0,0)"
font-family=".SF NS Text" font-size="26.7222" font-weight="400" font-style="normal" 
>
</g>

<g fill="none" stroke="#ffffff" stroke-opacity="1" stroke-width="1" stroke-linecap="square" stroke-linejoin="bevel" transform="matrix(1,0,0,1,955.715,594.207)"
font-family=".SF NS Text" font-size="26.7222" font-weight="400" font-style="normal" 
>
<path vector-effect="non-scaling-stroke" fill-rule="evenodd" d="M2.75559,0 C2.75559,-1.52187 1.52187,-2.75559 0,-2.75559 C-1.52187,-2.75559 -2.75559,-1.52187 -2.75559,0 C-2.75559,1.52187 -1.52187,2.75559 0,2.75559 C1.52187,2.75559 2.75559,1.52187 2.75559,0 "/>
</g>

<g fill="#ffffff" fill-opacity="1" stroke="#ffffff" stroke-opacity="1" stroke-width="1" stroke-linecap="square" stroke-linejoin="bevel" transform="matrix(1,0,0,1,0,0)"
font-family=".SF NS Text" font-size="26.7222" font-weight="400" font-style="normal" 
>
</g>

<g fill="none" stroke="#ffffff" stroke-opacity="1" stroke-width="1" stroke-linecap="square" stroke-linejoin="bevel" transform="matrix(1,0,0,1,404.875,284.463)"
font-family=".SF NS Text" font-size="26.7222" font-weight="400" font-style="normal" 
>
<path vector-effect="non-scaling-stroke" fill-rule="evenodd" d="M2.75559,0 C2.75559,-1.52187 1.52187,-2.75559 0,-2.75559 C-1.52187,-2.75559 -2.75559,-1.52187 -2.75559,0 C-2.75559,1.52187 -1.52187,2.75559 0,2.75559 C1.52187,2.75559 2.75559,1.52187 2.75559,0 "/>
</g>

<g fill="#ffffff" fill-opacity="1" stroke="#ffffff" stroke-opacity="1" stroke-width="1" stroke-linecap="square" stroke-linejoin="bevel" transform="matrix(1,0,0,1,0,0)"
font-family=".SF NS Text" font-size="26.7222" font-weight="400" font-style="normal" 
>
<polyline fill="none" vector-effect="non-scaling-stroke" points="368.39,353.057 368.39,327.502 368.409,327.197 368.465,326.896 368.559,326.605 368.688,326.328 368.851,326.069 369.044,325.832 369.265,325.621 369.511,325.439 369.778,325.289 370.061,325.174 370.356,325.094 370.658,325.052 370.964,325.047 371.268,325.081 371.565,325.152 371.852,325.259 372.122,325.401 372.373,325.576 372.601,325.781 372.801,326.012 372.971,326.266 373.108,326.539 373.21,326.827 373.275,327.126 373.275,353.057 373.256,353.366 373.2,353.67 373.108,353.966 372.98,354.248 372.819,354.512 372.627,354.755 372.407,354.972 372.163,355.162 371.897,355.32 371.614,355.445 371.317,355.535 371.013,355.588 370.704,355.604 370.395,355.582 370.091,355.523 369.797,355.428 369.516,355.297 369.253,355.134 369.012,354.94 368.797,354.718 368.61,354.471 368.454,354.204 368.331,353.919 368.245,353.622 368.194,353.317 368.182,353.008 368.206,352.699 " />
</g>

<g fill="none" stroke="#ffffff" stroke-opacity="1" stroke-width="1" stroke-linecap="square" stroke-linejoin="bevel" transform="matrix(1,0,0,1,1128.71,238.843)"
font-family=".SF NS Text" font-size="26.7222" font-weight="400" font-style="normal" 
>
<path vector-effect="non-scaling-stroke" fill-rule="evenodd" d="M2.75559,0 C2.75559,-1.52187 1.52187,-2.75559 0,-2.75559 C-1.52187,-2.75559 -2.75559,-1.52187 -2.75559,0 C-2.75559,1.52187 -1.52187,2.75559 0,2.75559 C1.52187,2.75559 2.75559,1.52187 2.75559,0 "/>
</g>

<g fill="#ffffff" fill-opacity="1" stroke="#ffffff" stroke-opacity="1" stroke-width="1" stroke-linecap="square" stroke-linejoin="bevel" transform="matrix(1,0,0,1,0,0)"
font-family=".SF NS Text" font-size="26.7222" font-weight="400" font-style="normal" 
>
<polyline fill="none" vector-effect="non-scaling-stroke" points="1160.75,366.481 1160.75,329.2 1160.77,328.869 1160.83,328.542 1160.92,328.223 1161.06,327.919 1161.22,327.631 1161.42,327.364 1161.65,327.123 1161.9,326.909 1162.18,326.727 1162.48,326.578 1162.79,326.464 1163.11,326.388 1163.44,326.349 1163.78,326.349 1164.1,326.388 1164.43,326.464 1164.74,326.578 1165.04,326.727 1165.31,326.909 1165.57,327.123 1165.8,327.364 1166,327.631 1166.16,327.919 1166.29,328.223 1166.39,328.542 1166.45,328.869 1166.47,329.2 1166.47,366.481 1166.45,366.813 1166.39,367.14 1166.29,367.458 1166.16,367.763 1166,368.051 1165.8,368.317 1165.57,368.559 1165.31,368.772 1165.04,368.955 1164.74,369.104 1164.43,369.217 1164.1,369.294 1163.78,369.333 1163.44,369.333 1163.11,369.294 1162.79,369.217 1162.48,369.104 1162.18,368.955 1161.9,368.772 1161.65,368.559 1161.42,368.317 1161.22,368.051 1161.06,367.763 1160.92,367.458 1160.83,367.14 1160.77,366.813 1160.75,366.481 " />
<polyline fill="none" vector-effect="non-scaling-stroke" points="417.438,239.643 444.792,95.4262 444.944,94.7566 445.135,94.0969 445.363,93.4493 445.629,92.8158 445.93,92.1987 446.266,91.6 446.636,91.0215 447.039,90.4653 447.473,89.9332 447.937,89.4269 448.429,88.9482 448.948,88.4985 449.492,88.0795 450.06,87.6924 450.648,87.3386 451.256,87.0193 451.881,86.7354 452.522,86.488 453.176,86.2778 453.84,86.1056 454.514,85.9719 455.194,85.8771 455.879,85.8217 456.565,85.8057 457.251,85.8292 457.935,85.8921 458.614,85.9942 459.286,86.1353 459.949,86.3148 460.601,86.532 461.238,86.7864 461.861,87.0771 462.465,87.4031 463.05,87.7633 463.613,88.1565 464.152,88.5814 464.666,89.0367 465.153,89.5208 465.612,90.0321 466.04,90.5689 466.437,91.1295 466.8,91.7119 467.13,92.3143 467.424,92.9347 467.683,93.571 467.904,94.221 468.088,94.8828 468.233,95.554 468.339,96.2324 468.406,96.9158 468.434,97.602 468.422,98.2886 468.371,98.9734 468.28,99.6541 441.476,245.081 441.388,245.778 441.261,246.468 441.095,247.151 440.891,247.823 440.65,248.482 440.371,249.127 440.057,249.755 439.707,250.364 439.324,250.952 438.908,251.518 438.46,252.059 437.983,252.574 437.477,253.061 436.945,253.519 436.388,253.947 435.807,254.342 435.205,254.703 434.584,255.03 433.945,255.321 433.29,255.576 432.623,255.794 431.944,255.973 431.256,256.113 430.561,256.215 429.861,256.277 429.159,256.299 428.457,256.282 427.757,256.225 427.062,256.129 426.373,255.993 425.693,255.819 425.023,255.607 424.367,255.357 423.726,255.07 423.102,254.748 422.497,254.391 421.914,254 421.353,253.577 420.818,253.123 420.309,252.639 419.828,252.128 419.376,251.59 418.956,251.027 418.568,250.442 418.214,249.835 417.895,249.21 417.612,248.567 417.365,247.91 417.156,247.239 416.985,246.558 416.853,245.868 416.76,245.172 416.707,244.472 416.693,243.77 416.719,243.068 416.785,242.369 416.89,241.675 417.034,240.988 417.217,240.31 417.438,239.643 " />
<polyline fill="none" vector-effect="non-scaling-stroke" points="1125.2,196.345 1097.85,52.1285 1097.7,51.4589 1097.51,50.7993 1097.28,50.1516 1097.01,49.5182 1096.71,48.9011 1096.37,48.3023 1096,47.7239 1095.6,47.1677 1095.17,46.6356 1094.7,46.1293 1094.21,45.6505 1093.69,45.2009 1093.15,44.7819 1092.58,44.3948 1091.99,44.041 1091.38,43.7216 1090.76,43.4378 1090.12,43.1904 1089.47,42.9802 1088.8,42.808 1088.13,42.6742 1087.45,42.5795 1086.76,42.524 1086.08,42.508 1085.39,42.5315 1084.71,42.5944 1084.03,42.6966 1083.35,42.8376 1082.69,43.0171 1082.04,43.2344 1081.4,43.4888 1080.78,43.7795 1080.18,44.1054 1079.59,44.4656 1079.03,44.8588 1078.49,45.2838 1077.97,45.7391 1077.49,46.2232 1077.03,46.7345 1076.6,47.2713 1076.2,47.8318 1075.84,48.4143 1075.51,49.0167 1075.22,49.637 1074.96,50.2733 1074.74,50.9234 1074.55,51.5851 1074.41,52.2563 1074.3,52.9348 1074.23,53.6182 1074.21,54.3043 1074.22,54.9909 1074.27,55.6757 1074.36,56.3564 1101.16,201.783 1101.25,202.48 1101.38,203.171 1101.55,203.853 1101.75,204.525 1101.99,205.184 1102.27,205.829 1102.58,206.457 1102.93,207.066 1103.32,207.654 1103.73,208.22 1104.18,208.761 1104.66,209.276 1105.16,209.764 1105.7,210.222 1106.25,210.649 1106.83,211.044 1107.44,211.406 1108.06,211.732 1108.7,212.024 1109.35,212.279 1110.02,212.496 1110.7,212.675 1111.39,212.816 1112.08,212.917 1112.78,212.979 1113.48,213.002 1114.18,212.985 1114.88,212.928 1115.58,212.831 1116.27,212.696 1116.95,212.522 1117.62,212.309 1118.27,212.059 1118.91,211.773 1119.54,211.45 1120.14,211.093 1120.73,210.702 1121.29,210.279 1121.82,209.825 1122.33,209.342 1122.81,208.83 1123.26,208.292 1123.68,207.729 1124.07,207.144 1124.43,206.538 1124.75,205.912 1125.03,205.27 1125.28,204.612 1125.48,203.942 1125.66,203.261 1125.79,202.571 1125.88,201.875 1125.93,201.175 1125.95,200.472 1125.92,199.771 1125.86,199.072 1125.75,198.377 1125.61,197.69 1125.42,197.012 1125.2,196.345 " />
<polyline fill="none" vector-effect="non-scaling-stroke" points="341.25,1056.99 341.25,929.199 391.629,929.199 391.629,985.267 476.342,1056.76 341.25,1056.99 " />
<polyline fill="none" vector-effect="non-scaling-stroke" points="573.727,1056.8 573.727,929.482 735.319,929.482 847.332,1056.8 573.727,1056.8 " />
<polyline fill="none" vector-effect="non-scaling-stroke" points="341.25,1056.99 341.25,0.681045 1271.26,0.681045 1271.26,1056.99 341.25,1056.99 " />
<polyline fill="none" vector-effect="non-scaling-stroke" points="1177.3,811.481 1145.44,760.518 808.513,970.719 840.428,1022.09 1177.3,811.481 " />
</g>

<g fill="none" stroke="#ffffff" stroke-opacity="1" stroke-width="1" stroke-linecap="square" stroke-linejoin="bevel" transform="matrix(1,0,0,1,1131.64,17.9181)"
font-family=".SF NS Text" font-size="26.7222" font-weight="400" font-style="normal" 
>
<path vector-effect="non-scaling-stroke" fill-rule="evenodd" d="M4.29413,0 C4.29413,-2.37158 2.37158,-4.29413 0,-4.29413 C-2.37158,-4.29413 -4.29413,-2.37158 -4.29413,0 C-4.29413,2.37158 -2.37158,4.29413 0,4.29413 C2.37158,4.29413 4.29413,2.37158 4.29413,0 "/>
</g>

<g fill="#ffffff" fill-opacity="1" stroke="#ffffff" stroke-opacity="1" stroke-width="1" stroke-linecap="square" stroke-linejoin="bevel" transform="matrix(1,0,0,1,0,0)"
font-family=".SF NS Text" font-size="26.7222" font-weight="400" font-style="normal" 
>
</g>

<g fill="none" stroke="#ffffff" stroke-opacity="1" stroke-width="1" stroke-linecap="square" stroke-linejoin="bevel" transform="matrix(1,0,0,1,427.4,389.863)"
font-family=".SF NS Text" font-size="26.7222" font-weight="400" font-style="normal" 
>
<path vector-effect="non-scaling-stroke" fill-rule="evenodd" d="M4.29413,0 C4.29413,-2.37158 2.37158,-4.29413 0,-4.29413 C-2.37158,-4.29413 -4.29413,-2.37158 -4.29413,0 C-4.29413,2.37158 -2.37158,4.29413 0,4.29413 C2.37158,4.29413 4.29413,2.37158 4.29413,0 "/>
</g>

<g fill="#ffffff" fill-opacity="1" stroke="#ffffff" stroke-opacity="1" stroke-width="1" stroke-linecap="square" stroke-linejoin="bevel" transform="matrix(1,0,0,1,0,0)"
font-family=".SF NS Text" font-size="26.7222" font-weight="400" font-style="normal" 
>
</g>

<g fill="none" stroke="#ffffff" stroke-opacity="1" stroke-width="1" stroke-linecap="square" stroke-linejoin="bevel" transform="matrix(1,0,0,1,1094.67,388.518)"
font-family=".SF NS Text" font-size="26.7222" font-weight="400" font-style="normal" 
>
<path vector-effect="non-scaling-stroke" fill-rule="evenodd" d="M4.29413,0 C4.29413,-2.37158 2.37158,-4.29413 0,-4.29413 C-2.37158,-4.29413 -4.29413,-2.37158 -4.29413,0 C-4.29413,2.37158 -2.37158,4.29413 0,4.29413 C2.37158,4.29413 4.29413,2.37158 4.29413,0 "/>
</g>

<g fill="#ffffff" fill-opacity="1" stroke="#ffffff" stroke-opacity="1" stroke-width="1" stroke-linecap="square" stroke-linejoin="bevel" transform="matrix(1,0,0,1,0,0)"
font-family=".SF NS Text" font-size="26.7222" font-weight="400" font-style="normal" 
>
</g>

<g fill="none" stroke="#ffffff" stroke-opacity="1" stroke-width="1" stroke-linecap="square" stroke-linejoin="bevel" transform="matrix(1,0,0,1,446.234,46.8088)"
font-family=".SF NS Text" font-size="26.7222" font-weight="400" font-style="normal" 
>
<path vector-effect="non-scaling-stroke" fill-rule="evenodd" d="M4.29413,0 C4.29413,-2.37158 2.37158,-4.29413 0,-4.29413 C-2.37158,-4.29413 -4.29413,-2.37158 -4.29413,0 C-4.29413,2.37158 -2.37158,4.29413 0,4.29413 C2.37158,4.29413 4.29413,2.37158 4.29413,0 "/>
</g>

<g fill="#ffffff" fill-opacity="1" stroke="#ffffff" stroke-opacity="1" stroke-width="1" stroke-linecap="square" stroke-linejoin="bevel" transform="matrix(1,0,0,1,0,0)"
font-family=".SF NS Text" font-size="26.7222" font-weight="400" font-style="normal" 
>
<polyline fill="none" vector-effect="non-scaling-stroke" points="340.446,20.3302 340.446,1.13687e-13 318.083,1.13687e-13 " />
<polyline fill="none" vector-effect="non-scaling-stroke" points="1270.55,23.3798 1270.55,1.13687e-13 1292.92,1.13687e-13 " />
</g>

<g fill="none" stroke="#000000" stroke-opacity="1" stroke-width="1" stroke-linecap="square" stroke-linejoin="bevel" transform="matrix(1,0,0,1,0,0)"
font-family=".SF NS Text" font-size="26.7222" font-weight="400" font-style="normal" 
>
</g>
</g>
</svg>
