<?xml version="1.0" encoding="UTF-8" standalone="no"?>
<svg width="276.482mm" height="181.404mm"
 viewBox="0 0 1611 1057"
 xmlns="http://www.w3.org/2000/svg" xmlns:xlink="http://www.w3.org/1999/xlink"  version="1.2" baseProfile="tiny">
<title>Qt SVG Document</title>
<desc>Generated with Qt</desc>
<defs>
</defs>
<g fill="none" stroke="black" stroke-width="1" fill-rule="evenodd" stroke-linecap="square" stroke-linejoin="bevel" >

<g fill="#000000" fill-opacity="1" stroke="none" transform="matrix(1,0,0,1,0,0)"
font-family=".SF NS Text" font-size="26.7222" font-weight="400" font-style="normal" 
>
<path vector-effect="none" fill-rule="evenodd" d="M0,0 L1611,0 L1611,1057 L0,1057 L0,0"/>
</g>

<g fill="none" stroke="#000000" stroke-opacity="1" stroke-width="1" stroke-linecap="square" stroke-linejoin="bevel" transform="matrix(1,0,0,1,0,0)"
font-family=".SF NS Text" font-size="26.7222" font-weight="400" font-style="normal" 
>
</g>

<g fill="#000000" fill-opacity="1" stroke="#000000" stroke-opacity="1" stroke-width="1" stroke-linecap="butt" stroke-linejoin="miter" stroke-miterlimit="2" transform="matrix(1,0,0,1,0,0)"
font-family=".SF NS Text" font-size="26.7222" font-weight="400" font-style="normal" 
>
</g>

<g fill="#000000" fill-opacity="1" stroke="#000000" stroke-opacity="1" stroke-width="1" stroke-linecap="butt" stroke-linejoin="miter" stroke-miterlimit="2" transform="matrix(1,0,0,1,0,0)"
font-family=".SF NS Text" font-size="26.7222" font-weight="400" font-style="normal" 
>
</g>

<g fill="#ffffff" fill-opacity="1" stroke="#ffffff" stroke-opacity="1" stroke-width="1" stroke-linecap="square" stroke-linejoin="bevel" transform="matrix(1,0,0,1,0,0)"
font-family=".SF NS Text" font-size="26.7222" font-weight="400" font-style="normal" 
>
</g>

<g fill="none" stroke="#ffffff" stroke-opacity="1" stroke-width="1" stroke-linecap="square" stroke-linejoin="bevel" transform="matrix(1,0,0,1,1101.02,248.063)"
font-family=".SF NS Text" font-size="26.7222" font-weight="400" font-style="normal" 
>
<path vector-effect="non-scaling-stroke" fill-rule="evenodd" d="M9.00852,0 C9.00852,-4.97527 4.97527,-9.00852 0,-9.00852 C-4.97527,-9.00852 -9.00852,-4.97527 -9.00852,0 C-9.00852,4.97527 -4.97527,9.00852 0,9.00852 C4.97527,9.00852 9.00852,4.97527 9.00852,0 "/>
</g>

<g fill="#ffffff" fill-opacity="1" stroke="#ffffff" stroke-opacity="1" stroke-width="1" stroke-linecap="square" stroke-linejoin="bevel" transform="matrix(1,0,0,1,0,0)"
font-family=".SF NS Text" font-size="26.7222" font-weight="400" font-style="normal" 
>
</g>

<g fill="none" stroke="#ffffff" stroke-opacity="1" stroke-width="1" stroke-linecap="square" stroke-linejoin="bevel" transform="matrix(1,0,0,1,1167.08,248.063)"
font-family=".SF NS Text" font-size="26.7222" font-weight="400" font-style="normal" 
>
<path vector-effect="non-scaling-stroke" fill-rule="evenodd" d="M9.00852,0 C9.00852,-4.97527 4.97527,-9.00852 0,-9.00852 C-4.97527,-9.00852 -9.00852,-4.97527 -9.00852,0 C-9.00852,4.97527 -4.97527,9.00852 0,9.00852 C4.97527,9.00852 9.00852,4.97527 9.00852,0 "/>
</g>

<g fill="#ffffff" fill-opacity="1" stroke="#ffffff" stroke-opacity="1" stroke-width="1" stroke-linecap="square" stroke-linejoin="bevel" transform="matrix(1,0,0,1,0,0)"
font-family=".SF NS Text" font-size="26.7222" font-weight="400" font-style="normal" 
>
<polyline fill="none" vector-effect="non-scaling-stroke" points="1117.98,244.25 1117.82,245.034 1117.69,245.824 1117.6,246.62 1117.55,247.419 1117.54,248.22 1117.56,249.02 1117.63,249.818 1117.73,250.612 1117.88,251.4 1118.06,252.18 1118.28,252.951 1118.53,253.71 1118.82,254.455 1119.15,255.186 1119.51,255.9 1119.91,256.595 1120.34,257.271 1120.8,257.925 1121.3,258.555 1121.82,259.161 1122.37,259.741 1122.95,260.293 1123.56,260.817 1124.19,261.311 1124.84,261.773 1125.52,262.203 1126.21,262.6 1126.93,262.963 1127.66,263.291 1128.4,263.583 1129.16,263.838 1129.93,264.057 1130.71,264.238 1131.5,264.38 1132.3,264.485 1133.09,264.55 1133.89,264.578 1134.7,264.566 1135.49,264.515 1136.29,264.426 1137.08,264.298 1137.86,264.132 1138.17,264.641 1138.51,265.129 1138.88,265.593 1139.28,266.032 1139.71,266.443 1140.17,266.825 1140.64,267.177 1141.15,267.496 1141.67,267.781 1142.21,268.031 1142.76,268.246 1143.33,268.423 1143.9,268.563 1144.49,268.664 1145.08,268.726 1145.67,268.749 1146.27,268.733 1146.86,268.678 1147.45,268.584 1148.03,268.452 1148.6,268.282 1149.15,268.074 1149.69,267.831 1150.22,267.552 1150.72,267.239 1151.21,266.894 1151.67,266.517 1152.1,266.111 1152.51,265.677 1152.88,265.218 1153.23,264.734 1153.54,264.229 1153.82,263.704 1154.06,263.163 1154.27,262.606 1154.44,262.037 1154.57,261.457 1154.67,260.871 1154.72,260.279 1154.74,259.685 1154.72,259.092 1154.65,258.501 1154.55,257.915 1154.41,257.338 1154.24,256.771 1154.02,256.216 1153.77,255.678 1153.49,255.157 1153.17,254.655 1152.81,254.176 1152.43,253.721 1152.02,253.293 1151.58,252.892 1151.12,252.521 1150.63,252.182 1150.12,251.875 1150.29,251.092 1150.42,250.301 1150.5,249.505 1150.56,248.706 1150.57,247.905 1150.54,247.105 1150.47,246.307 1150.37,245.513 1150.23,244.725 1150.05,243.945 1149.83,243.174 1149.57,242.416 1149.28,241.67 1148.95,240.939 1148.59,240.225 1148.19,239.53 1147.76,238.854 1147.3,238.201 1146.81,237.57 1146.28,236.964 1145.73,236.384 1145.15,235.832 1144.54,235.308 1143.91,234.815 1143.26,234.352 1142.58,233.922 1141.89,233.525 1141.18,233.162 1140.44,232.834 1139.7,232.542 1138.94,232.287 1138.17,232.069 1137.39,231.888 1136.6,231.745 1135.81,231.641 1135.01,231.575 1134.21,231.548 1133.41,231.56 1132.61,231.61 1131.81,231.699 1131.02,231.827 1130.24,231.993 1129.93,231.484 1129.59,230.997 1129.22,230.532 1128.82,230.094 1128.39,229.682 1127.94,229.3 1127.46,228.949 1126.96,228.63 1126.44,228.344 1125.9,228.094 1125.34,227.88 1124.78,227.702 1124.2,227.563 1123.61,227.462 1123.02,227.399 1122.43,227.376 1121.84,227.392 1121.24,227.447 1120.66,227.541 1120.08,227.673 1119.51,227.844 1118.95,228.051 1118.41,228.295 1117.89,228.573 1117.38,228.886 1116.9,229.232 1116.44,229.608 1116,230.014 1115.6,230.448 1115.22,230.908 1114.88,231.391 1114.56,231.896 1114.28,232.421 1114.04,232.963 1113.83,233.519 1113.66,234.089 1113.53,234.668 1113.44,235.255 1113.38,235.846 1113.37,236.44 1113.39,237.034 1113.45,237.625 1113.55,238.21 1113.69,238.788 1113.87,239.355 1114.08,239.909 1114.33,240.448 1114.62,240.969 1114.94,241.47 1115.29,241.949 1115.67,242.404 1116.08,242.833 1116.52,243.233 1116.99,243.604 1117.47,243.944 1117.98,244.25 " />
</g>

<g fill="none" stroke="#ffffff" stroke-opacity="1" stroke-width="1" stroke-linecap="square" stroke-linejoin="bevel" transform="matrix(1,0,0,1,919.045,324.883)"
font-family=".SF NS Text" font-size="26.7222" font-weight="400" font-style="normal" 
>
<path vector-effect="non-scaling-stroke" fill-rule="evenodd" d="M9.00852,0 C9.00852,-4.97527 4.97527,-9.00852 0,-9.00852 C-4.97527,-9.00852 -9.00852,-4.97527 -9.00852,0 C-9.00852,4.97527 -4.97527,9.00852 0,9.00852 C4.97527,9.00852 9.00852,4.97527 9.00852,0 "/>
</g>

<g fill="#ffffff" fill-opacity="1" stroke="#ffffff" stroke-opacity="1" stroke-width="1" stroke-linecap="square" stroke-linejoin="bevel" transform="matrix(1,0,0,1,0,0)"
font-family=".SF NS Text" font-size="26.7222" font-weight="400" font-style="normal" 
>
</g>

<g fill="none" stroke="#ffffff" stroke-opacity="1" stroke-width="1" stroke-linecap="square" stroke-linejoin="bevel" transform="matrix(1,0,0,1,985.107,324.883)"
font-family=".SF NS Text" font-size="26.7222" font-weight="400" font-style="normal" 
>
<path vector-effect="non-scaling-stroke" fill-rule="evenodd" d="M9.00852,0 C9.00852,-4.97527 4.97527,-9.00852 0,-9.00852 C-4.97527,-9.00852 -9.00852,-4.97527 -9.00852,0 C-9.00852,4.97527 -4.97527,9.00852 0,9.00852 C4.97527,9.00852 9.00852,4.97527 9.00852,0 "/>
</g>

<g fill="#ffffff" fill-opacity="1" stroke="#ffffff" stroke-opacity="1" stroke-width="1" stroke-linecap="square" stroke-linejoin="bevel" transform="matrix(1,0,0,1,0,0)"
font-family=".SF NS Text" font-size="26.7222" font-weight="400" font-style="normal" 
>
<polyline fill="none" vector-effect="non-scaling-stroke" points="936.006,321.071 935.84,321.854 935.713,322.645 935.623,323.44 935.573,324.24 935.561,325.04 935.588,325.841 935.654,326.639 935.758,327.433 935.901,328.221 936.082,329.001 936.3,329.771 936.556,330.53 936.848,331.276 937.175,332.007 937.538,332.721 937.935,333.416 938.365,334.091 938.828,334.745 939.322,335.376 939.845,335.982 940.398,336.562 940.977,337.114 941.583,337.638 942.214,338.131 942.868,338.594 943.543,339.024 944.239,339.421 944.952,339.784 945.683,340.111 946.429,340.403 947.188,340.659 947.958,340.877 948.738,341.058 949.526,341.201 950.32,341.305 951.118,341.371 951.919,341.398 952.719,341.386 953.519,341.336 954.314,341.246 955.105,341.119 955.888,340.953 956.195,341.462 956.534,341.949 956.905,342.414 957.306,342.852 957.735,343.264 958.189,343.646 958.669,343.997 959.17,344.316 959.691,344.602 960.23,344.852 960.784,345.066 961.351,345.244 961.928,345.383 962.514,345.484 963.105,345.547 963.698,345.57 964.292,345.554 964.884,345.499 965.471,345.405 966.05,345.273 966.619,345.102 967.176,344.895 967.718,344.651 968.242,344.372 968.747,344.06 969.231,343.714 969.69,343.338 970.124,342.932 970.53,342.498 970.907,342.038 971.252,341.555 971.565,341.05 971.844,340.525 972.088,339.983 972.295,339.426 972.465,338.857 972.598,338.278 972.692,337.691 972.747,337.1 972.763,336.506 972.739,335.912 972.677,335.321 972.576,334.736 972.436,334.158 972.259,333.591 972.045,333.037 971.794,332.498 971.509,331.977 971.19,331.476 970.838,330.997 970.456,330.542 970.045,330.113 969.606,329.713 969.142,329.342 968.654,329.002 968.145,328.696 968.311,327.912 968.439,327.122 968.528,326.326 968.579,325.527 968.591,324.726 968.564,323.926 968.498,323.128 968.394,322.334 968.251,321.546 968.07,320.766 967.852,319.995 967.596,319.236 967.304,318.49 966.976,317.76 966.613,317.046 966.216,316.35 965.786,315.675 965.324,315.021 964.83,314.391 964.307,313.785 963.754,313.205 963.174,312.653 962.568,312.129 961.938,311.635 961.284,311.173 960.609,310.743 959.913,310.346 959.199,309.983 958.469,309.655 957.723,309.363 956.964,309.108 956.194,308.889 955.413,308.708 954.625,308.566 953.832,308.461 953.033,308.395 952.233,308.368 951.432,308.38 950.633,308.431 949.837,308.52 949.047,308.648 948.263,308.814 947.957,308.305 947.617,307.817 947.246,307.353 946.846,306.914 946.417,306.503 945.962,306.121 945.483,305.769 944.982,305.45 944.461,305.165 943.922,304.914 943.368,304.7 942.801,304.523 942.223,304.383 941.638,304.282 941.047,304.22 940.453,304.197 939.859,304.212 939.268,304.268 938.681,304.361 938.102,304.494 937.533,304.664 936.976,304.872 936.434,305.115 935.909,305.394 935.404,305.707 934.921,306.052 934.461,306.429 934.028,306.835 933.622,307.269 933.245,307.728 932.9,308.212 932.587,308.717 932.308,309.241 932.064,309.783 931.857,310.34 931.686,310.909 931.554,311.488 931.46,312.075 931.405,312.667 931.389,313.261 931.412,313.854 931.475,314.445 931.576,315.031 931.716,315.608 931.893,316.175 932.107,316.729 932.357,317.268 932.643,317.789 932.962,318.291 933.313,318.77 933.695,319.224 934.107,319.653 934.546,320.054 935.01,320.425 935.497,320.764 936.006,321.071 " />
</g>

<g fill="none" stroke="#ffffff" stroke-opacity="1" stroke-width="1" stroke-linecap="square" stroke-linejoin="bevel" transform="matrix(1,0,0,1,1075.69,448.358)"
font-family=".SF NS Text" font-size="26.7222" font-weight="400" font-style="normal" 
>
<path vector-effect="non-scaling-stroke" fill-rule="evenodd" d="M9.00852,0 C9.00852,-4.97527 4.97527,-9.00852 0,-9.00852 C-4.97527,-9.00852 -9.00852,-4.97527 -9.00852,0 C-9.00852,4.97527 -4.97527,9.00852 0,9.00852 C4.97527,9.00852 9.00852,4.97527 9.00852,0 "/>
</g>

<g fill="#ffffff" fill-opacity="1" stroke="#ffffff" stroke-opacity="1" stroke-width="1" stroke-linecap="square" stroke-linejoin="bevel" transform="matrix(1,0,0,1,0,0)"
font-family=".SF NS Text" font-size="26.7222" font-weight="400" font-style="normal" 
>
</g>

<g fill="none" stroke="#ffffff" stroke-opacity="1" stroke-width="1" stroke-linecap="square" stroke-linejoin="bevel" transform="matrix(1,0,0,1,1141.75,448.358)"
font-family=".SF NS Text" font-size="26.7222" font-weight="400" font-style="normal" 
>
<path vector-effect="non-scaling-stroke" fill-rule="evenodd" d="M9.00852,0 C9.00852,-4.97527 4.97527,-9.00852 0,-9.00852 C-4.97527,-9.00852 -9.00852,-4.97527 -9.00852,0 C-9.00852,4.97527 -4.97527,9.00852 0,9.00852 C4.97527,9.00852 9.00852,4.97527 9.00852,0 "/>
</g>

<g fill="#ffffff" fill-opacity="1" stroke="#ffffff" stroke-opacity="1" stroke-width="1" stroke-linecap="square" stroke-linejoin="bevel" transform="matrix(1,0,0,1,0,0)"
font-family=".SF NS Text" font-size="26.7222" font-weight="400" font-style="normal" 
>
<polyline fill="none" vector-effect="non-scaling-stroke" points="1092.65,444.546 1092.49,445.329 1092.36,446.12 1092.27,446.915 1092.22,447.715 1092.21,448.515 1092.24,449.316 1092.3,450.114 1092.41,450.908 1092.55,451.696 1092.73,452.476 1092.95,453.246 1093.2,454.005 1093.5,454.751 1093.82,455.482 1094.19,456.196 1094.58,456.891 1095.01,457.566 1095.48,458.22 1095.97,458.851 1096.49,459.457 1097.04,460.037 1097.62,460.589 1098.23,461.112 1098.86,461.606 1099.51,462.069 1100.19,462.499 1100.89,462.896 1101.6,463.259 1102.33,463.586 1103.08,463.878 1103.84,464.134 1104.61,464.352 1105.39,464.533 1106.17,464.676 1106.97,464.78 1107.77,464.846 1108.57,464.873 1109.37,464.861 1110.17,464.811 1110.96,464.721 1111.75,464.594 1112.54,464.428 1112.84,464.937 1113.18,465.424 1113.55,465.889 1113.95,466.327 1114.38,466.739 1114.84,467.121 1115.32,467.472 1115.82,467.791 1116.34,468.077 1116.88,468.327 1117.43,468.541 1118,468.719 1118.58,468.858 1119.16,468.959 1119.75,469.022 1120.35,469.045 1120.94,469.029 1121.53,468.974 1122.12,468.88 1122.7,468.748 1123.27,468.577 1123.82,468.37 1124.37,468.126 1124.89,467.847 1125.39,467.535 1125.88,467.189 1126.34,466.813 1126.77,466.407 1127.18,465.973 1127.55,465.513 1127.9,465.03 1128.21,464.525 1128.49,464 1128.73,463.458 1128.94,462.901 1129.11,462.332 1129.25,461.753 1129.34,461.166 1129.39,460.575 1129.41,459.981 1129.39,459.387 1129.32,458.796 1129.22,458.211 1129.08,457.633 1128.91,457.066 1128.69,456.512 1128.44,455.973 1128.16,455.452 1127.84,454.951 1127.49,454.472 1127.1,454.017 1126.69,453.588 1126.25,453.188 1125.79,452.817 1125.3,452.477 1124.79,452.171 1124.96,451.387 1125.09,450.597 1125.18,449.801 1125.23,449.002 1125.24,448.201 1125.21,447.401 1125.15,446.603 1125.04,445.809 1124.9,445.021 1124.72,444.24 1124.5,443.47 1124.24,442.711 1123.95,441.965 1123.62,441.235 1123.26,440.521 1122.86,439.825 1122.43,439.15 1121.97,438.496 1121.48,437.866 1120.95,437.26 1120.4,436.68 1119.82,436.128 1119.22,435.604 1118.59,435.11 1117.93,434.648 1117.26,434.218 1116.56,433.821 1115.85,433.458 1115.12,433.13 1114.37,432.838 1113.61,432.583 1112.84,432.364 1112.06,432.183 1111.27,432.041 1110.48,431.936 1109.68,431.87 1108.88,431.843 1108.08,431.855 1107.28,431.906 1106.48,431.995 1105.69,432.123 1104.91,432.289 1104.6,431.78 1104.26,431.292 1103.89,430.828 1103.49,430.389 1103.06,429.978 1102.61,429.596 1102.13,429.244 1101.63,428.925 1101.11,428.64 1100.57,428.389 1100.02,428.175 1099.45,427.998 1098.87,427.858 1098.29,427.757 1097.69,427.695 1097.1,427.672 1096.51,427.687 1095.92,427.743 1095.33,427.836 1094.75,427.969 1094.18,428.139 1093.62,428.346 1093.08,428.59 1092.56,428.869 1092.05,429.182 1091.57,429.527 1091.11,429.904 1090.67,430.31 1090.27,430.744 1089.89,431.203 1089.55,431.687 1089.23,432.192 1088.96,432.716 1088.71,433.258 1088.5,433.815 1088.33,434.384 1088.2,434.963 1088.11,435.55 1088.05,436.142 1088.04,436.736 1088.06,437.329 1088.12,437.92 1088.22,438.506 1088.36,439.083 1088.54,439.65 1088.75,440.204 1089,440.743 1089.29,441.264 1089.61,441.766 1089.96,442.245 1090.34,442.699 1090.75,443.128 1091.19,443.529 1091.66,443.9 1092.14,444.239 1092.65,444.546 " />
</g>

<g fill="none" stroke="#ffffff" stroke-opacity="1" stroke-width="1" stroke-linecap="square" stroke-linejoin="bevel" transform="matrix(1,0,0,1,745.432,626.412)"
font-family=".SF NS Text" font-size="26.7222" font-weight="400" font-style="normal" 
>
<path vector-effect="non-scaling-stroke" fill-rule="evenodd" d="M4.49225,0 C4.49225,-2.481 2.481,-4.49225 0,-4.49225 C-2.481,-4.49225 -4.49225,-2.481 -4.49225,0 C-4.49225,2.481 -2.481,4.49225 0,4.49225 C2.481,4.49225 4.49225,2.481 4.49225,0 "/>
</g>

<g fill="#ffffff" fill-opacity="1" stroke="#ffffff" stroke-opacity="1" stroke-width="1" stroke-linecap="square" stroke-linejoin="bevel" transform="matrix(1,0,0,1,0,0)"
font-family=".SF NS Text" font-size="26.7222" font-weight="400" font-style="normal" 
>
</g>

<g fill="none" stroke="#ffffff" stroke-opacity="1" stroke-width="1" stroke-linecap="square" stroke-linejoin="bevel" transform="matrix(1,0,0,1,863.136,593.462)"
font-family=".SF NS Text" font-size="26.7222" font-weight="400" font-style="normal" 
>
<path vector-effect="non-scaling-stroke" fill-rule="evenodd" d="M4.49225,0 C4.49225,-2.481 2.481,-4.49225 0,-4.49225 C-2.481,-4.49225 -4.49225,-2.481 -4.49225,0 C-4.49225,2.481 -2.481,4.49225 0,4.49225 C2.481,4.49225 4.49225,2.481 4.49225,0 "/>
</g>

<g fill="#ffffff" fill-opacity="1" stroke="#ffffff" stroke-opacity="1" stroke-width="1" stroke-linecap="square" stroke-linejoin="bevel" transform="matrix(1,0,0,1,0,0)"
font-family=".SF NS Text" font-size="26.7222" font-weight="400" font-style="normal" 
>
</g>

<g fill="none" stroke="#ffffff" stroke-opacity="1" stroke-width="1" stroke-linecap="square" stroke-linejoin="bevel" transform="matrix(1,0,0,1,417.703,747.816)"
font-family=".SF NS Text" font-size="26.7222" font-weight="400" font-style="normal" 
>
<path vector-effect="non-scaling-stroke" fill-rule="evenodd" d="M4.49225,0 C4.49225,-2.481 2.481,-4.49225 0,-4.49225 C-2.481,-4.49225 -4.49225,-2.481 -4.49225,0 C-4.49225,2.481 -2.481,4.49225 0,4.49225 C2.481,4.49225 4.49225,2.481 4.49225,0 "/>
</g>

<g fill="#ffffff" fill-opacity="1" stroke="#ffffff" stroke-opacity="1" stroke-width="1" stroke-linecap="square" stroke-linejoin="bevel" transform="matrix(1,0,0,1,0,0)"
font-family=".SF NS Text" font-size="26.7222" font-weight="400" font-style="normal" 
>
</g>

<g fill="none" stroke="#ffffff" stroke-opacity="1" stroke-width="1" stroke-linecap="square" stroke-linejoin="bevel" transform="matrix(1,0,0,1,533.754,704.361)"
font-family=".SF NS Text" font-size="26.7222" font-weight="400" font-style="normal" 
>
<path vector-effect="non-scaling-stroke" fill-rule="evenodd" d="M4.49225,0 C4.49225,-2.481 2.481,-4.49225 0,-4.49225 C-2.481,-4.49225 -4.49225,-2.481 -4.49225,0 C-4.49225,2.481 -2.481,4.49225 0,4.49225 C2.481,4.49225 4.49225,2.481 4.49225,0 "/>
</g>

<g fill="#ffffff" fill-opacity="1" stroke="#ffffff" stroke-opacity="1" stroke-width="1" stroke-linecap="square" stroke-linejoin="bevel" transform="matrix(1,0,0,1,0,0)"
font-family=".SF NS Text" font-size="26.7222" font-weight="400" font-style="normal" 
>
</g>

<g fill="none" stroke="#ffffff" stroke-opacity="1" stroke-width="1" stroke-linecap="square" stroke-linejoin="bevel" transform="matrix(1,0,0,1,1158.78,643.359)"
font-family=".SF NS Text" font-size="26.7222" font-weight="400" font-style="normal" 
>
<path vector-effect="non-scaling-stroke" fill-rule="evenodd" d="M4.49225,0 C4.49225,-2.481 2.481,-4.49225 0,-4.49225 C-2.481,-4.49225 -4.49225,-2.481 -4.49225,0 C-4.49225,2.481 -2.481,4.49225 0,4.49225 C2.481,4.49225 4.49225,2.481 4.49225,0 "/>
</g>

<g fill="#ffffff" fill-opacity="1" stroke="#ffffff" stroke-opacity="1" stroke-width="1" stroke-linecap="square" stroke-linejoin="bevel" transform="matrix(1,0,0,1,0,0)"
font-family=".SF NS Text" font-size="26.7222" font-weight="400" font-style="normal" 
>
</g>

<g fill="none" stroke="#ffffff" stroke-opacity="1" stroke-width="1" stroke-linecap="square" stroke-linejoin="bevel" transform="matrix(1,0,0,1,1040.27,604.689)"
font-family=".SF NS Text" font-size="26.7222" font-weight="400" font-style="normal" 
>
<path vector-effect="non-scaling-stroke" fill-rule="evenodd" d="M4.49225,0 C4.49225,-2.481 2.481,-4.49225 0,-4.49225 C-2.481,-4.49225 -4.49225,-2.481 -4.49225,0 C-4.49225,2.481 -2.481,4.49225 0,4.49225 C2.481,4.49225 4.49225,2.481 4.49225,0 "/>
</g>

<g fill="#ffffff" fill-opacity="1" stroke="#ffffff" stroke-opacity="1" stroke-width="1" stroke-linecap="square" stroke-linejoin="bevel" transform="matrix(1,0,0,1,0,0)"
font-family=".SF NS Text" font-size="26.7222" font-weight="400" font-style="normal" 
>
</g>

<g fill="none" stroke="#ffffff" stroke-opacity="1" stroke-width="1" stroke-linecap="square" stroke-linejoin="bevel" transform="matrix(1,0,0,1,634.107,657.831)"
font-family=".SF NS Text" font-size="26.7222" font-weight="400" font-style="normal" 
>
<path vector-effect="non-scaling-stroke" fill-rule="evenodd" d="M31.5823,0 C31.5823,-17.4424 17.4424,-31.5823 0,-31.5823 C-17.4424,-31.5823 -31.5823,-17.4424 -31.5823,0 C-31.5823,17.4424 -17.4424,31.5823 0,31.5823 C17.4424,31.5823 31.5823,17.4424 31.5823,0 "/>
</g>

<g fill="#ffffff" fill-opacity="1" stroke="#ffffff" stroke-opacity="1" stroke-width="1" stroke-linecap="square" stroke-linejoin="bevel" transform="matrix(1,0,0,1,0,0)"
font-family=".SF NS Text" font-size="26.7222" font-weight="400" font-style="normal" 
>
<polyline fill="none" vector-effect="non-scaling-stroke" points="731.744,485.83 722.969,426.6 800.709,415.083 809.483,474.313 731.744,485.83 " />
</g>

<g fill="none" stroke="#ffffff" stroke-opacity="1" stroke-width="1" stroke-linecap="square" stroke-linejoin="bevel" transform="matrix(1,0,0,1,1017.42,472.784)"
font-family=".SF NS Text" font-size="26.7222" font-weight="400" font-style="normal" 
>
<path vector-effect="non-scaling-stroke" fill-rule="evenodd" d="M4.49225,0 C4.49225,-2.481 2.481,-4.49225 0,-4.49225 C-2.481,-4.49225 -4.49225,-2.481 -4.49225,0 C-4.49225,2.481 -2.481,4.49225 0,4.49225 C2.481,4.49225 4.49225,2.481 4.49225,0 "/>
</g>

<g fill="#ffffff" fill-opacity="1" stroke="#ffffff" stroke-opacity="1" stroke-width="1" stroke-linecap="square" stroke-linejoin="bevel" transform="matrix(1,0,0,1,0,0)"
font-family=".SF NS Text" font-size="26.7222" font-weight="400" font-style="normal" 
>
</g>

<g fill="none" stroke="#ffffff" stroke-opacity="1" stroke-width="1" stroke-linecap="square" stroke-linejoin="bevel" transform="matrix(1,0,0,1,985.384,396.369)"
font-family=".SF NS Text" font-size="26.7222" font-weight="400" font-style="normal" 
>
<path vector-effect="non-scaling-stroke" fill-rule="evenodd" d="M4.49225,0 C4.49225,-2.481 2.481,-4.49225 0,-4.49225 C-2.481,-4.49225 -4.49225,-2.481 -4.49225,0 C-4.49225,2.481 -2.481,4.49225 0,4.49225 C2.481,4.49225 4.49225,2.481 4.49225,0 "/>
</g>

<g fill="#ffffff" fill-opacity="1" stroke="#ffffff" stroke-opacity="1" stroke-width="1" stroke-linecap="square" stroke-linejoin="bevel" transform="matrix(1,0,0,1,0,0)"
font-family=".SF NS Text" font-size="26.7222" font-weight="400" font-style="normal" 
>
</g>

<g fill="none" stroke="#ffffff" stroke-opacity="1" stroke-width="1" stroke-linecap="square" stroke-linejoin="bevel" transform="matrix(1,0,0,1,588.349,466.578)"
font-family=".SF NS Text" font-size="26.7222" font-weight="400" font-style="normal" 
>
<path vector-effect="non-scaling-stroke" fill-rule="evenodd" d="M31.5823,0 C31.5823,-17.4424 17.4424,-31.5823 0,-31.5823 C-17.4424,-31.5823 -31.5823,-17.4424 -31.5823,0 C-31.5823,17.4424 -17.4424,31.5823 0,31.5823 C17.4424,31.5823 31.5823,17.4424 31.5823,0 "/>
</g>

<g fill="#ffffff" fill-opacity="1" stroke="#ffffff" stroke-opacity="1" stroke-width="1" stroke-linecap="square" stroke-linejoin="bevel" transform="matrix(1,0,0,1,0,0)"
font-family=".SF NS Text" font-size="26.7222" font-weight="400" font-style="normal" 
>
</g>

<g fill="none" stroke="#ffffff" stroke-opacity="1" stroke-width="1" stroke-linecap="square" stroke-linejoin="bevel" transform="matrix(1,0,0,1,702.218,410.091)"
font-family=".SF NS Text" font-size="26.7222" font-weight="400" font-style="normal" 
>
<path vector-effect="non-scaling-stroke" fill-rule="evenodd" d="M4.49225,0 C4.49225,-2.481 2.481,-4.49225 0,-4.49225 C-2.481,-4.49225 -4.49225,-2.481 -4.49225,0 C-4.49225,2.481 -2.481,4.49225 0,4.49225 C2.481,4.49225 4.49225,2.481 4.49225,0 "/>
</g>

<g fill="#ffffff" fill-opacity="1" stroke="#ffffff" stroke-opacity="1" stroke-width="1" stroke-linecap="square" stroke-linejoin="bevel" transform="matrix(1,0,0,1,0,0)"
font-family=".SF NS Text" font-size="26.7222" font-weight="400" font-style="normal" 
>
</g>

<g fill="none" stroke="#ffffff" stroke-opacity="1" stroke-width="1" stroke-linecap="square" stroke-linejoin="bevel" transform="matrix(1,0,0,1,805.755,391.379)"
font-family=".SF NS Text" font-size="26.7222" font-weight="400" font-style="normal" 
>
<path vector-effect="non-scaling-stroke" fill-rule="evenodd" d="M4.49225,0 C4.49225,-2.481 2.481,-4.49225 0,-4.49225 C-2.481,-4.49225 -4.49225,-2.481 -4.49225,0 C-4.49225,2.481 -2.481,4.49225 0,4.49225 C2.481,4.49225 4.49225,2.481 4.49225,0 "/>
</g>

<g fill="#ffffff" fill-opacity="1" stroke="#ffffff" stroke-opacity="1" stroke-width="1" stroke-linecap="square" stroke-linejoin="bevel" transform="matrix(1,0,0,1,0,0)"
font-family=".SF NS Text" font-size="26.7222" font-weight="400" font-style="normal" 
>
<polyline fill="none" vector-effect="non-scaling-stroke" points="505.034,597.771 501.88,583.264 502.828,581.527 503.817,579.813 504.847,578.122 505.916,576.457 507.025,574.818 508.173,573.206 509.358,571.621 510.582,570.065 511.841,568.539 513.137,567.043 514.468,565.578 515.834,564.146 517.233,562.746 518.666,561.381 520.13,560.049 521.626,558.753 523.152,557.493 524.708,556.27 526.292,555.084 527.904,553.936 529.543,552.827 531.209,551.757 532.899,550.728 534.613,549.738 536.35,548.79 538.109,547.884 539.89,547.02 541.69,546.198 543.51,545.419 558.645,538.902 573.93,532.744 589.356,526.949 604.914,521.519 620.597,516.457 636.394,511.767 652.297,507.451 668.298,503.512 684.388,499.951 700.557,496.771 716.796,493.973 733.097,491.559 749.451,489.53 765.848,487.888 782.279,486.633 798.735,485.767 815.206,485.288 831.685,485.199 848.161,485.498 851.49,485.612 854.816,485.806 858.136,486.079 861.449,486.432 864.752,486.865 868.044,487.376 871.323,487.966 874.586,488.635 877.833,489.382 881.061,490.207 884.268,491.108 887.452,492.087 890.612,493.141 893.746,494.271 896.852,495.476 899.928,496.755 902.973,498.108 905.984,499.533 908.96,501.03 911.9,502.598 914.8,504.236 917.661,505.943 920.48,507.718 918.727,510.275 916.914,512.79 915.042,515.261 913.113,517.687 911.126,520.067 909.085,522.4 906.988,524.683 904.839,526.917 902.637,529.1 900.385,531.229 898.082,533.306 895.732,535.327 893.334,537.292 890.891,539.2 888.404,541.05 885.873,542.841 883.301,544.572 880.689,546.241 878.039,547.849 875.351,549.393 872.627,550.874 869.869,552.29 867.079,553.64 864.258,554.925 861.407,556.142 843.131,563.035 824.702,569.504 806.129,575.548 787.421,581.162 768.589,586.343 749.643,591.089 730.592,595.397 711.447,599.265 692.219,602.691 672.916,605.673 653.549,608.21 634.13,610.3 614.667,611.941 595.172,613.134 575.654,613.877 556.125,614.171 554.028,614.138 551.934,614.056 549.841,613.925 547.753,613.744 545.669,613.514 543.591,613.235 541.52,612.906 539.458,612.529 537.405,612.104 535.363,611.63 533.333,611.108 531.315,610.539 529.311,609.921 527.323,609.257 525.351,608.546 523.396,607.789 521.459,606.986 519.542,606.137 517.646,605.243 515.771,604.305 513.919,603.323 512.091,602.297 510.287,601.228 508.509,600.117 506.758,598.965 505.034,597.771 " />
<polyline fill="none" vector-effect="non-scaling-stroke" points="319.04,1057 319.04,-1.13687e-13 1291.96,-1.13687e-13 1291.96,1057 319.04,1057 " />
</g>

<g fill="none" stroke="#000000" stroke-opacity="1" stroke-width="1" stroke-linecap="square" stroke-linejoin="bevel" transform="matrix(1,0,0,1,0,0)"
font-family=".SF NS Text" font-size="26.7222" font-weight="400" font-style="normal" 
>
</g>
</g>
</svg>
