<?xml version="1.0" encoding="UTF-8" standalone="no"?>
<svg width="276.482mm" height="181.404mm"
 viewBox="0 0 1611 1057"
 xmlns="http://www.w3.org/2000/svg" xmlns:xlink="http://www.w3.org/1999/xlink"  version="1.2" baseProfile="tiny">
<title>Qt SVG Document</title>
<desc>Generated with Qt</desc>
<defs>
</defs>
<g fill="none" stroke="black" stroke-width="1" fill-rule="evenodd" stroke-linecap="square" stroke-linejoin="bevel" >

<g fill="#000000" fill-opacity="1" stroke="none" transform="matrix(1,0,0,1,0,0)"
font-family=".SF NS Text" font-size="26.7222" font-weight="400" font-style="normal" 
>
<path vector-effect="none" fill-rule="evenodd" d="M0,0 L1611,0 L1611,1057 L0,1057 L0,0"/>
</g>

<g fill="none" stroke="#000000" stroke-opacity="1" stroke-width="1" stroke-linecap="square" stroke-linejoin="bevel" transform="matrix(1,0,0,1,0,0)"
font-family=".SF NS Text" font-size="26.7222" font-weight="400" font-style="normal" 
>
</g>

<g fill="#000000" fill-opacity="1" stroke="#000000" stroke-opacity="1" stroke-width="1" stroke-linecap="butt" stroke-linejoin="miter" stroke-miterlimit="2" transform="matrix(1,0,0,1,0,0)"
font-family=".SF NS Text" font-size="26.7222" font-weight="400" font-style="normal" 
>
</g>

<g fill="#000000" fill-opacity="1" stroke="#000000" stroke-opacity="1" stroke-width="1" stroke-linecap="butt" stroke-linejoin="miter" stroke-miterlimit="2" transform="matrix(1,0,0,1,0,0)"
font-family=".SF NS Text" font-size="26.7222" font-weight="400" font-style="normal" 
>
</g>

<g fill="#ffffff" fill-opacity="1" stroke="#ffffff" stroke-opacity="1" stroke-width="1" stroke-linecap="square" stroke-linejoin="bevel" transform="matrix(1,0,0,1,0,0)"
font-family=".SF NS Text" font-size="26.7222" font-weight="400" font-style="normal" 
>
</g>

<g fill="none" stroke="#ffffff" stroke-opacity="1" stroke-width="1" stroke-linecap="square" stroke-linejoin="bevel" transform="matrix(1,0,0,1,1114.6,962.292)"
font-family=".SF NS Text" font-size="26.7222" font-weight="400" font-style="normal" 
>
<path vector-effect="non-scaling-stroke" fill-rule="evenodd" d="M16.0525,0 C16.0525,-8.86553 8.86553,-16.0525 0,-16.0525 C-8.86553,-16.0525 -16.0525,-8.86553 -16.0525,0 C-16.0525,8.86553 -8.86553,16.0525 0,16.0525 C8.86553,16.0525 16.0525,8.86553 16.0525,0 "/>
</g>

<g fill="#ffffff" fill-opacity="1" stroke="#ffffff" stroke-opacity="1" stroke-width="1" stroke-linecap="square" stroke-linejoin="bevel" transform="matrix(1,0,0,1,0,0)"
font-family=".SF NS Text" font-size="26.7222" font-weight="400" font-style="normal" 
>
</g>

<g fill="none" stroke="#ffffff" stroke-opacity="1" stroke-width="1" stroke-linecap="square" stroke-linejoin="bevel" transform="matrix(1,0,0,1,556.55,989.375)"
font-family=".SF NS Text" font-size="26.7222" font-weight="400" font-style="normal" 
>
<path vector-effect="non-scaling-stroke" fill-rule="evenodd" d="M3.21693,0 C3.21693,-1.77666 1.77666,-3.21693 0,-3.21693 C-1.77666,-3.21693 -3.21693,-1.77666 -3.21693,0 C-3.21693,1.77666 -1.77666,3.21693 0,3.21693 C1.77666,3.21693 3.21693,1.77666 3.21693,0 "/>
</g>

<g fill="#ffffff" fill-opacity="1" stroke="#ffffff" stroke-opacity="1" stroke-width="1" stroke-linecap="square" stroke-linejoin="bevel" transform="matrix(1,0,0,1,0,0)"
font-family=".SF NS Text" font-size="26.7222" font-weight="400" font-style="normal" 
>
</g>

<g fill="none" stroke="#ffffff" stroke-opacity="1" stroke-width="1" stroke-linecap="square" stroke-linejoin="bevel" transform="matrix(1,0,0,1,556.55,1034.81)"
font-family=".SF NS Text" font-size="26.7222" font-weight="400" font-style="normal" 
>
<path vector-effect="non-scaling-stroke" fill-rule="evenodd" d="M3.21693,0 C3.21693,-1.77666 1.77666,-3.21693 0,-3.21693 C-1.77666,-3.21693 -3.21693,-1.77666 -3.21693,0 C-3.21693,1.77666 -1.77666,3.21693 0,3.21693 C1.77666,3.21693 3.21693,1.77666 3.21693,0 "/>
</g>

<g fill="#ffffff" fill-opacity="1" stroke="#ffffff" stroke-opacity="1" stroke-width="1" stroke-linecap="square" stroke-linejoin="bevel" transform="matrix(1,0,0,1,0,0)"
font-family=".SF NS Text" font-size="26.7222" font-weight="400" font-style="normal" 
>
</g>

<g fill="none" stroke="#ffffff" stroke-opacity="1" stroke-width="1" stroke-linecap="square" stroke-linejoin="bevel" transform="matrix(1,0,0,1,948.023,989.375)"
font-family=".SF NS Text" font-size="26.7222" font-weight="400" font-style="normal" 
>
<path vector-effect="non-scaling-stroke" fill-rule="evenodd" d="M3.21693,0 C3.21693,-1.77666 1.77666,-3.21693 0,-3.21693 C-1.77666,-3.21693 -3.21693,-1.77666 -3.21693,0 C-3.21693,1.77666 -1.77666,3.21693 0,3.21693 C1.77666,3.21693 3.21693,1.77666 3.21693,0 "/>
</g>

<g fill="#ffffff" fill-opacity="1" stroke="#ffffff" stroke-opacity="1" stroke-width="1" stroke-linecap="square" stroke-linejoin="bevel" transform="matrix(1,0,0,1,0,0)"
font-family=".SF NS Text" font-size="26.7222" font-weight="400" font-style="normal" 
>
</g>

<g fill="none" stroke="#ffffff" stroke-opacity="1" stroke-width="1" stroke-linecap="square" stroke-linejoin="bevel" transform="matrix(1,0,0,1,948.023,1034.81)"
font-family=".SF NS Text" font-size="26.7222" font-weight="400" font-style="normal" 
>
<path vector-effect="non-scaling-stroke" fill-rule="evenodd" d="M3.21693,0 C3.21693,-1.77666 1.77666,-3.21693 0,-3.21693 C-1.77666,-3.21693 -3.21693,-1.77666 -3.21693,0 C-3.21693,1.77666 -1.77666,3.21693 0,3.21693 C1.77666,3.21693 3.21693,1.77666 3.21693,0 "/>
</g>

<g fill="#ffffff" fill-opacity="1" stroke="#ffffff" stroke-opacity="1" stroke-width="1" stroke-linecap="square" stroke-linejoin="bevel" transform="matrix(1,0,0,1,0,0)"
font-family=".SF NS Text" font-size="26.7222" font-weight="400" font-style="normal" 
>
</g>

<g fill="none" stroke="#ffffff" stroke-opacity="1" stroke-width="1" stroke-linecap="square" stroke-linejoin="bevel" transform="matrix(1,0,0,1,1048.6,788.017)"
font-family=".SF NS Text" font-size="26.7222" font-weight="400" font-style="normal" 
>
<path vector-effect="non-scaling-stroke" fill-rule="evenodd" d="M3.21693,0 C3.21693,-1.77666 1.77666,-3.21693 0,-3.21693 C-1.77666,-3.21693 -3.21693,-1.77666 -3.21693,0 C-3.21693,1.77666 -1.77666,3.21693 0,3.21693 C1.77666,3.21693 3.21693,1.77666 3.21693,0 "/>
</g>

<g fill="#ffffff" fill-opacity="1" stroke="#ffffff" stroke-opacity="1" stroke-width="1" stroke-linecap="square" stroke-linejoin="bevel" transform="matrix(1,0,0,1,0,0)"
font-family=".SF NS Text" font-size="26.7222" font-weight="400" font-style="normal" 
>
</g>

<g fill="none" stroke="#ffffff" stroke-opacity="1" stroke-width="1" stroke-linecap="square" stroke-linejoin="bevel" transform="matrix(1,0,0,1,990.968,824.256)"
font-family=".SF NS Text" font-size="26.7222" font-weight="400" font-style="normal" 
>
<path vector-effect="non-scaling-stroke" fill-rule="evenodd" d="M3.21693,0 C3.21693,-1.77666 1.77666,-3.21693 0,-3.21693 C-1.77666,-3.21693 -3.21693,-1.77666 -3.21693,0 C-3.21693,1.77666 -1.77666,3.21693 0,3.21693 C1.77666,3.21693 3.21693,1.77666 3.21693,0 "/>
</g>

<g fill="#ffffff" fill-opacity="1" stroke="#ffffff" stroke-opacity="1" stroke-width="1" stroke-linecap="square" stroke-linejoin="bevel" transform="matrix(1,0,0,1,0,0)"
font-family=".SF NS Text" font-size="26.7222" font-weight="400" font-style="normal" 
>
</g>

<g fill="none" stroke="#ffffff" stroke-opacity="1" stroke-width="1" stroke-linecap="square" stroke-linejoin="bevel" transform="matrix(1,0,0,1,1019.78,806.137)"
font-family=".SF NS Text" font-size="26.7222" font-weight="400" font-style="normal" 
>
<path vector-effect="non-scaling-stroke" fill-rule="evenodd" d="M3.21693,0 C3.21693,-1.77666 1.77666,-3.21693 0,-3.21693 C-1.77666,-3.21693 -3.21693,-1.77666 -3.21693,0 C-3.21693,1.77666 -1.77666,3.21693 0,3.21693 C1.77666,3.21693 3.21693,1.77666 3.21693,0 "/>
</g>

<g fill="#ffffff" fill-opacity="1" stroke="#ffffff" stroke-opacity="1" stroke-width="1" stroke-linecap="square" stroke-linejoin="bevel" transform="matrix(1,0,0,1,0,0)"
font-family=".SF NS Text" font-size="26.7222" font-weight="400" font-style="normal" 
>
</g>

<g fill="none" stroke="#ffffff" stroke-opacity="1" stroke-width="1" stroke-linecap="square" stroke-linejoin="bevel" transform="matrix(1,0,0,1,604.642,742.883)"
font-family=".SF NS Text" font-size="26.7222" font-weight="400" font-style="normal" 
>
<path vector-effect="non-scaling-stroke" fill-rule="evenodd" d="M11.489,0 C11.489,-6.34522 6.34522,-11.489 0,-11.489 C-6.34522,-11.489 -11.489,-6.34522 -11.489,0 C-11.489,6.34522 -6.34522,11.489 0,11.489 C6.34522,11.489 11.489,6.34522 11.489,0 "/>
</g>

<g fill="#ffffff" fill-opacity="1" stroke="#ffffff" stroke-opacity="1" stroke-width="1" stroke-linecap="square" stroke-linejoin="bevel" transform="matrix(1,0,0,1,0,0)"
font-family=".SF NS Text" font-size="26.7222" font-weight="400" font-style="normal" 
>
</g>

<g fill="none" stroke="#ffffff" stroke-opacity="1" stroke-width="1" stroke-linecap="square" stroke-linejoin="bevel" transform="matrix(1,0,0,1,915.918,742.883)"
font-family=".SF NS Text" font-size="26.7222" font-weight="400" font-style="normal" 
>
<path vector-effect="non-scaling-stroke" fill-rule="evenodd" d="M11.489,0 C11.489,-6.34522 6.34522,-11.489 0,-11.489 C-6.34522,-11.489 -11.489,-6.34522 -11.489,0 C-11.489,6.34522 -6.34522,11.489 0,11.489 C6.34522,11.489 11.489,6.34522 11.489,0 "/>
</g>

<g fill="#ffffff" fill-opacity="1" stroke="#ffffff" stroke-opacity="1" stroke-width="1" stroke-linecap="square" stroke-linejoin="bevel" transform="matrix(1,0,0,1,0,0)"
font-family=".SF NS Text" font-size="26.7222" font-weight="400" font-style="normal" 
>
</g>

<g fill="none" stroke="#ffffff" stroke-opacity="1" stroke-width="1" stroke-linecap="square" stroke-linejoin="bevel" transform="matrix(1,0,0,1,471.961,788.017)"
font-family=".SF NS Text" font-size="26.7222" font-weight="400" font-style="normal" 
>
<path vector-effect="non-scaling-stroke" fill-rule="evenodd" d="M3.21693,0 C3.21693,-1.77666 1.77666,-3.21693 0,-3.21693 C-1.77666,-3.21693 -3.21693,-1.77666 -3.21693,0 C-3.21693,1.77666 -1.77666,3.21693 0,3.21693 C1.77666,3.21693 3.21693,1.77666 3.21693,0 "/>
</g>

<g fill="#ffffff" fill-opacity="1" stroke="#ffffff" stroke-opacity="1" stroke-width="1" stroke-linecap="square" stroke-linejoin="bevel" transform="matrix(1,0,0,1,0,0)"
font-family=".SF NS Text" font-size="26.7222" font-weight="400" font-style="normal" 
>
</g>

<g fill="none" stroke="#ffffff" stroke-opacity="1" stroke-width="1" stroke-linecap="square" stroke-linejoin="bevel" transform="matrix(1,0,0,1,529.592,824.256)"
font-family=".SF NS Text" font-size="26.7222" font-weight="400" font-style="normal" 
>
<path vector-effect="non-scaling-stroke" fill-rule="evenodd" d="M3.21693,0 C3.21693,-1.77666 1.77666,-3.21693 0,-3.21693 C-1.77666,-3.21693 -3.21693,-1.77666 -3.21693,0 C-3.21693,1.77666 -1.77666,3.21693 0,3.21693 C1.77666,3.21693 3.21693,1.77666 3.21693,0 "/>
</g>

<g fill="#ffffff" fill-opacity="1" stroke="#ffffff" stroke-opacity="1" stroke-width="1" stroke-linecap="square" stroke-linejoin="bevel" transform="matrix(1,0,0,1,0,0)"
font-family=".SF NS Text" font-size="26.7222" font-weight="400" font-style="normal" 
>
</g>

<g fill="none" stroke="#ffffff" stroke-opacity="1" stroke-width="1" stroke-linecap="square" stroke-linejoin="bevel" transform="matrix(1,0,0,1,500.777,806.137)"
font-family=".SF NS Text" font-size="26.7222" font-weight="400" font-style="normal" 
>
<path vector-effect="non-scaling-stroke" fill-rule="evenodd" d="M3.21693,0 C3.21693,-1.77666 1.77666,-3.21693 0,-3.21693 C-1.77666,-3.21693 -3.21693,-1.77666 -3.21693,0 C-3.21693,1.77666 -1.77666,3.21693 0,3.21693 C1.77666,3.21693 3.21693,1.77666 3.21693,0 "/>
</g>

<g fill="#ffffff" fill-opacity="1" stroke="#ffffff" stroke-opacity="1" stroke-width="1" stroke-linecap="square" stroke-linejoin="bevel" transform="matrix(1,0,0,1,0,0)"
font-family=".SF NS Text" font-size="26.7222" font-weight="400" font-style="normal" 
>
</g>

<g fill="none" stroke="#ffffff" stroke-opacity="1" stroke-width="1" stroke-linecap="square" stroke-linejoin="bevel" transform="matrix(1,0,0,1,426.471,410.126)"
font-family=".SF NS Text" font-size="26.7222" font-weight="400" font-style="normal" 
>
<path vector-effect="non-scaling-stroke" fill-rule="evenodd" d="M3.59032,0 C3.59032,-1.98288 1.98288,-3.59032 0,-3.59032 C-1.98288,-3.59032 -3.59032,-1.98288 -3.59032,0 C-3.59032,1.98288 -1.98288,3.59032 0,3.59032 C1.98288,3.59032 3.59032,1.98288 3.59032,0 "/>
</g>

<g fill="#ffffff" fill-opacity="1" stroke="#ffffff" stroke-opacity="1" stroke-width="1" stroke-linecap="square" stroke-linejoin="bevel" transform="matrix(1,0,0,1,0,0)"
font-family=".SF NS Text" font-size="26.7222" font-weight="400" font-style="normal" 
>
</g>

<g fill="none" stroke="#ffffff" stroke-opacity="1" stroke-width="1" stroke-linecap="square" stroke-linejoin="bevel" transform="matrix(1,0,0,1,448.731,631.29)"
font-family=".SF NS Text" font-size="26.7222" font-weight="400" font-style="normal" 
>
<path vector-effect="non-scaling-stroke" fill-rule="evenodd" d="M3.59032,0 C3.59032,-1.98288 1.98288,-3.59032 0,-3.59032 C-1.98288,-3.59032 -3.59032,-1.98288 -3.59032,0 C-3.59032,1.98288 -1.98288,3.59032 0,3.59032 C1.98288,3.59032 3.59032,1.98288 3.59032,0 "/>
</g>

<g fill="#ffffff" fill-opacity="1" stroke="#ffffff" stroke-opacity="1" stroke-width="1" stroke-linecap="square" stroke-linejoin="bevel" transform="matrix(1,0,0,1,0,0)"
font-family=".SF NS Text" font-size="26.7222" font-weight="400" font-style="normal" 
>
</g>

<g fill="none" stroke="#ffffff" stroke-opacity="1" stroke-width="1" stroke-linecap="square" stroke-linejoin="bevel" transform="matrix(1,0,0,1,510.218,673.72)"
font-family=".SF NS Text" font-size="26.7222" font-weight="400" font-style="normal" 
>
<path vector-effect="non-scaling-stroke" fill-rule="evenodd" d="M3.59032,0 C3.59032,-1.98288 1.98288,-3.59032 0,-3.59032 C-1.98288,-3.59032 -3.59032,-1.98288 -3.59032,0 C-3.59032,1.98288 -1.98288,3.59032 0,3.59032 C1.98288,3.59032 3.59032,1.98288 3.59032,0 "/>
</g>

<g fill="#ffffff" fill-opacity="1" stroke="#ffffff" stroke-opacity="1" stroke-width="1" stroke-linecap="square" stroke-linejoin="bevel" transform="matrix(1,0,0,1,0,0)"
font-family=".SF NS Text" font-size="26.7222" font-weight="400" font-style="normal" 
>
</g>

<g fill="none" stroke="#ffffff" stroke-opacity="1" stroke-width="1" stroke-linecap="square" stroke-linejoin="bevel" transform="matrix(1,0,0,1,571.52,716.022)"
font-family=".SF NS Text" font-size="26.7222" font-weight="400" font-style="normal" 
>
<path vector-effect="non-scaling-stroke" fill-rule="evenodd" d="M3.59032,0 C3.59032,-1.98288 1.98288,-3.59032 0,-3.59032 C-1.98288,-3.59032 -3.59032,-1.98288 -3.59032,0 C-3.59032,1.98288 -1.98288,3.59032 0,3.59032 C1.98288,3.59032 3.59032,1.98288 3.59032,0 "/>
</g>

<g fill="#ffffff" fill-opacity="1" stroke="#ffffff" stroke-opacity="1" stroke-width="1" stroke-linecap="square" stroke-linejoin="bevel" transform="matrix(1,0,0,1,0,0)"
font-family=".SF NS Text" font-size="26.7222" font-weight="400" font-style="normal" 
>
</g>

<g fill="none" stroke="#ffffff" stroke-opacity="1" stroke-width="1" stroke-linecap="square" stroke-linejoin="bevel" transform="matrix(1,0,0,1,540.869,694.871)"
font-family=".SF NS Text" font-size="26.7222" font-weight="400" font-style="normal" 
>
<path vector-effect="non-scaling-stroke" fill-rule="evenodd" d="M11.489,0 C11.489,-6.34522 6.34522,-11.489 0,-11.489 C-6.34522,-11.489 -11.489,-6.34522 -11.489,0 C-11.489,6.34522 -6.34522,11.489 0,11.489 C6.34522,11.489 11.489,6.34522 11.489,0 "/>
</g>

<g fill="#ffffff" fill-opacity="1" stroke="#ffffff" stroke-opacity="1" stroke-width="1" stroke-linecap="square" stroke-linejoin="bevel" transform="matrix(1,0,0,1,0,0)"
font-family=".SF NS Text" font-size="26.7222" font-weight="400" font-style="normal" 
>
</g>

<g fill="none" stroke="#ffffff" stroke-opacity="1" stroke-width="1" stroke-linecap="square" stroke-linejoin="bevel" transform="matrix(1,0,0,1,479.428,652.473)"
font-family=".SF NS Text" font-size="26.7222" font-weight="400" font-style="normal" 
>
<path vector-effect="non-scaling-stroke" fill-rule="evenodd" d="M11.489,0 C11.489,-6.34522 6.34522,-11.489 0,-11.489 C-6.34522,-11.489 -11.489,-6.34522 -11.489,0 C-11.489,6.34522 -6.34522,11.489 0,11.489 C6.34522,11.489 11.489,6.34522 11.489,0 "/>
</g>

<g fill="#ffffff" fill-opacity="1" stroke="#ffffff" stroke-opacity="1" stroke-width="1" stroke-linecap="square" stroke-linejoin="bevel" transform="matrix(1,0,0,1,0,0)"
font-family=".SF NS Text" font-size="26.7222" font-weight="400" font-style="normal" 
>
</g>

<g fill="none" stroke="#ffffff" stroke-opacity="1" stroke-width="1" stroke-linecap="square" stroke-linejoin="bevel" transform="matrix(1,0,0,1,525.256,459.447)"
font-family=".SF NS Text" font-size="26.7222" font-weight="400" font-style="normal" 
>
<path vector-effect="non-scaling-stroke" fill-rule="evenodd" d="M11.489,0 C11.489,-6.34522 6.34522,-11.489 0,-11.489 C-6.34522,-11.489 -11.489,-6.34522 -11.489,0 C-11.489,6.34522 -6.34522,11.489 0,11.489 C6.34522,11.489 11.489,6.34522 11.489,0 "/>
</g>

<g fill="#ffffff" fill-opacity="1" stroke="#ffffff" stroke-opacity="1" stroke-width="1" stroke-linecap="square" stroke-linejoin="bevel" transform="matrix(1,0,0,1,0,0)"
font-family=".SF NS Text" font-size="26.7222" font-weight="400" font-style="normal" 
>
</g>

<g fill="none" stroke="#ffffff" stroke-opacity="1" stroke-width="1" stroke-linecap="square" stroke-linejoin="bevel" transform="matrix(1,0,0,1,554.866,552.507)"
font-family=".SF NS Text" font-size="26.7222" font-weight="400" font-style="normal" 
>
<path vector-effect="non-scaling-stroke" fill-rule="evenodd" d="M11.489,0 C11.489,-6.34522 6.34522,-11.489 0,-11.489 C-6.34522,-11.489 -11.489,-6.34522 -11.489,0 C-11.489,6.34522 -6.34522,11.489 0,11.489 C6.34522,11.489 11.489,6.34522 11.489,0 "/>
</g>

<g fill="#ffffff" fill-opacity="1" stroke="#ffffff" stroke-opacity="1" stroke-width="1" stroke-linecap="square" stroke-linejoin="bevel" transform="matrix(1,0,0,1,0,0)"
font-family=".SF NS Text" font-size="26.7222" font-weight="400" font-style="normal" 
>
<polyline fill="none" vector-effect="non-scaling-stroke" points="527.183,522.131 554.492,513.441 555.123,513.22 555.74,512.963 556.341,512.67 556.923,512.343 557.486,511.982 558.027,511.59 558.544,511.166 559.035,510.713 559.5,510.233 559.936,509.726 560.341,509.195 560.715,508.641 561.056,508.066 561.363,507.472 561.635,506.862 561.871,506.237 562.07,505.599 562.232,504.95 562.356,504.294 562.442,503.631 562.488,502.964 562.496,502.296 562.465,501.628 562.396,500.964 562.288,500.304 562.141,499.652 561.957,499.01 561.736,498.379 561.479,497.762 561.186,497.161 560.859,496.579 560.498,496.016 560.105,495.475 559.682,494.958 559.229,494.467 558.749,494.002 558.242,493.567 557.711,493.161 557.157,492.787 556.582,492.446 555.988,492.139 555.378,491.867 554.753,491.631 554.115,491.432 553.466,491.27 552.81,491.146 552.147,491.061 551.48,491.014 550.812,491.006 550.144,491.037 549.479,491.106 548.82,491.215 548.168,491.361 547.525,491.545 520.216,500.234 519.585,500.455 518.968,500.713 518.368,501.006 517.785,501.333 517.222,501.693 516.681,502.086 516.164,502.51 515.673,502.962 515.208,503.443 514.773,503.95 514.367,504.481 513.993,505.035 513.652,505.61 513.345,506.203 513.073,506.814 512.837,507.439 512.638,508.077 512.476,508.725 512.352,509.382 512.267,510.045 512.22,510.712 512.212,511.38 512.243,512.047 512.313,512.712 512.421,513.372 512.567,514.024 512.751,514.666 512.972,515.297 513.23,515.914 513.522,516.514 513.85,517.097 514.21,517.66 514.603,518.201 515.026,518.718 515.479,519.209 515.96,519.673 516.466,520.109 516.998,520.515 517.552,520.888 518.126,521.23 518.72,521.537 519.33,521.809 519.956,522.045 520.594,522.244 521.242,522.406 521.899,522.53 522.562,522.615 523.228,522.662 523.897,522.67 524.564,522.639 525.229,522.569 525.888,522.461 526.54,522.315 527.183,522.131 " />
</g>

<g fill="none" stroke="#ffffff" stroke-opacity="1" stroke-width="1" stroke-linecap="square" stroke-linejoin="bevel" transform="matrix(1,0,0,1,530.609,560.389)"
font-family=".SF NS Text" font-size="26.7222" font-weight="400" font-style="normal" 
>
<path vector-effect="non-scaling-stroke" fill-rule="evenodd" d="M10.5378,0 C10.5378,-5.81988 5.81988,-10.5378 0,-10.5378 C-5.81988,-10.5378 -10.5378,-5.81988 -10.5378,0 C-10.5378,5.81988 -5.81988,10.5378 0,10.5378 C5.81988,10.5378 10.5378,5.81988 10.5378,0 "/>
</g>

<g fill="#ffffff" fill-opacity="1" stroke="#ffffff" stroke-opacity="1" stroke-width="1" stroke-linecap="square" stroke-linejoin="bevel" transform="matrix(1,0,0,1,0,0)"
font-family=".SF NS Text" font-size="26.7222" font-weight="400" font-style="normal" 
>
</g>

<g fill="none" stroke="#ffffff" stroke-opacity="1" stroke-width="1" stroke-linecap="square" stroke-linejoin="bevel" transform="matrix(1,0,0,1,503.168,454.279)"
font-family=".SF NS Text" font-size="26.7222" font-weight="400" font-style="normal" 
>
<path vector-effect="non-scaling-stroke" fill-rule="evenodd" d="M10.5378,0 C10.5378,-5.81988 5.81988,-10.5378 0,-10.5378 C-5.81988,-10.5378 -10.5378,-5.81988 -10.5378,0 C-10.5378,5.81988 -5.81988,10.5378 0,10.5378 C5.81988,10.5378 10.5378,5.81988 10.5378,0 "/>
</g>

<g fill="#ffffff" fill-opacity="1" stroke="#ffffff" stroke-opacity="1" stroke-width="1" stroke-linecap="square" stroke-linejoin="bevel" transform="matrix(1,0,0,1,0,0)"
font-family=".SF NS Text" font-size="26.7222" font-weight="400" font-style="normal" 
>
</g>

<g fill="none" stroke="#ffffff" stroke-opacity="1" stroke-width="1" stroke-linecap="square" stroke-linejoin="bevel" transform="matrix(1,0,0,1,505.556,427.197)"
font-family=".SF NS Text" font-size="26.7222" font-weight="400" font-style="normal" 
>
<path vector-effect="non-scaling-stroke" fill-rule="evenodd" d="M3.59147,0 C3.59147,-1.98352 1.98352,-3.59147 0,-3.59147 C-1.98352,-3.59147 -3.59147,-1.98352 -3.59147,0 C-3.59147,1.98352 -1.98352,3.59147 0,3.59147 C1.98352,3.59147 3.59147,1.98352 3.59147,0 "/>
</g>

<g fill="#ffffff" fill-opacity="1" stroke="#ffffff" stroke-opacity="1" stroke-width="1" stroke-linecap="square" stroke-linejoin="bevel" transform="matrix(1,0,0,1,0,0)"
font-family=".SF NS Text" font-size="26.7222" font-weight="400" font-style="normal" 
>
</g>

<g fill="none" stroke="#ffffff" stroke-opacity="1" stroke-width="1" stroke-linecap="square" stroke-linejoin="bevel" transform="matrix(1,0,0,1,501.309,504.898)"
font-family=".SF NS Text" font-size="26.7222" font-weight="400" font-style="normal" 
>
<path vector-effect="non-scaling-stroke" fill-rule="evenodd" d="M3.59147,0 C3.59147,-1.98352 1.98352,-3.59147 0,-3.59147 C-1.98352,-3.59147 -3.59147,-1.98352 -3.59147,0 C-3.59147,1.98352 -1.98352,3.59147 0,3.59147 C1.98352,3.59147 3.59147,1.98352 3.59147,0 "/>
</g>

<g fill="#ffffff" fill-opacity="1" stroke="#ffffff" stroke-opacity="1" stroke-width="1" stroke-linecap="square" stroke-linejoin="bevel" transform="matrix(1,0,0,1,0,0)"
font-family=".SF NS Text" font-size="26.7222" font-weight="400" font-style="normal" 
>
</g>

<g fill="none" stroke="#ffffff" stroke-opacity="1" stroke-width="1" stroke-linecap="square" stroke-linejoin="bevel" transform="matrix(1,0,0,1,506.151,551.918)"
font-family=".SF NS Text" font-size="26.7222" font-weight="400" font-style="normal" 
>
<path vector-effect="non-scaling-stroke" fill-rule="evenodd" d="M3.59147,0 C3.59147,-1.98352 1.98352,-3.59147 0,-3.59147 C-1.98352,-3.59147 -3.59147,-1.98352 -3.59147,0 C-3.59147,1.98352 -1.98352,3.59147 0,3.59147 C1.98352,3.59147 3.59147,1.98352 3.59147,0 "/>
</g>

<g fill="#ffffff" fill-opacity="1" stroke="#ffffff" stroke-opacity="1" stroke-width="1" stroke-linecap="square" stroke-linejoin="bevel" transform="matrix(1,0,0,1,0,0)"
font-family=".SF NS Text" font-size="26.7222" font-weight="400" font-style="normal" 
>
</g>

<g fill="none" stroke="#ffffff" stroke-opacity="1" stroke-width="1" stroke-linecap="square" stroke-linejoin="bevel" transform="matrix(1,0,0,1,566.485,593.742)"
font-family=".SF NS Text" font-size="26.7222" font-weight="400" font-style="normal" 
>
<path vector-effect="non-scaling-stroke" fill-rule="evenodd" d="M3.59147,0 C3.59147,-1.98352 1.98352,-3.59147 0,-3.59147 C-1.98352,-3.59147 -3.59147,-1.98352 -3.59147,0 C-3.59147,1.98352 -1.98352,3.59147 0,3.59147 C1.98352,3.59147 3.59147,1.98352 3.59147,0 "/>
</g>

<g fill="#ffffff" fill-opacity="1" stroke="#ffffff" stroke-opacity="1" stroke-width="1" stroke-linecap="square" stroke-linejoin="bevel" transform="matrix(1,0,0,1,0,0)"
font-family=".SF NS Text" font-size="26.7222" font-weight="400" font-style="normal" 
>
</g>

<g fill="none" stroke="#ffffff" stroke-opacity="1" stroke-width="1" stroke-linecap="square" stroke-linejoin="bevel" transform="matrix(1,0,0,1,1095.07,410.292)"
font-family=".SF NS Text" font-size="26.7222" font-weight="400" font-style="normal" 
>
<path vector-effect="non-scaling-stroke" fill-rule="evenodd" d="M3.59032,0 C3.59032,-1.98288 1.98288,-3.59032 0,-3.59032 C-1.98288,-3.59032 -3.59032,-1.98288 -3.59032,0 C-3.59032,1.98288 -1.98288,3.59032 0,3.59032 C1.98288,3.59032 3.59032,1.98288 3.59032,0 "/>
</g>

<g fill="#ffffff" fill-opacity="1" stroke="#ffffff" stroke-opacity="1" stroke-width="1" stroke-linecap="square" stroke-linejoin="bevel" transform="matrix(1,0,0,1,0,0)"
font-family=".SF NS Text" font-size="26.7222" font-weight="400" font-style="normal" 
>
</g>

<g fill="none" stroke="#ffffff" stroke-opacity="1" stroke-width="1" stroke-linecap="square" stroke-linejoin="bevel" transform="matrix(1,0,0,1,1072.81,631.456)"
font-family=".SF NS Text" font-size="26.7222" font-weight="400" font-style="normal" 
>
<path vector-effect="non-scaling-stroke" fill-rule="evenodd" d="M3.59032,0 C3.59032,-1.98288 1.98288,-3.59032 0,-3.59032 C-1.98288,-3.59032 -3.59032,-1.98288 -3.59032,0 C-3.59032,1.98288 -1.98288,3.59032 0,3.59032 C1.98288,3.59032 3.59032,1.98288 3.59032,0 "/>
</g>

<g fill="#ffffff" fill-opacity="1" stroke="#ffffff" stroke-opacity="1" stroke-width="1" stroke-linecap="square" stroke-linejoin="bevel" transform="matrix(1,0,0,1,0,0)"
font-family=".SF NS Text" font-size="26.7222" font-weight="400" font-style="normal" 
>
</g>

<g fill="none" stroke="#ffffff" stroke-opacity="1" stroke-width="1" stroke-linecap="square" stroke-linejoin="bevel" transform="matrix(1,0,0,1,1011.32,673.885)"
font-family=".SF NS Text" font-size="26.7222" font-weight="400" font-style="normal" 
>
<path vector-effect="non-scaling-stroke" fill-rule="evenodd" d="M3.59032,0 C3.59032,-1.98288 1.98288,-3.59032 0,-3.59032 C-1.98288,-3.59032 -3.59032,-1.98288 -3.59032,0 C-3.59032,1.98288 -1.98288,3.59032 0,3.59032 C1.98288,3.59032 3.59032,1.98288 3.59032,0 "/>
</g>

<g fill="#ffffff" fill-opacity="1" stroke="#ffffff" stroke-opacity="1" stroke-width="1" stroke-linecap="square" stroke-linejoin="bevel" transform="matrix(1,0,0,1,0,0)"
font-family=".SF NS Text" font-size="26.7222" font-weight="400" font-style="normal" 
>
</g>

<g fill="none" stroke="#ffffff" stroke-opacity="1" stroke-width="1" stroke-linecap="square" stroke-linejoin="bevel" transform="matrix(1,0,0,1,950.019,716.187)"
font-family=".SF NS Text" font-size="26.7222" font-weight="400" font-style="normal" 
>
<path vector-effect="non-scaling-stroke" fill-rule="evenodd" d="M3.59032,0 C3.59032,-1.98288 1.98288,-3.59032 0,-3.59032 C-1.98288,-3.59032 -3.59032,-1.98288 -3.59032,0 C-3.59032,1.98288 -1.98288,3.59032 0,3.59032 C1.98288,3.59032 3.59032,1.98288 3.59032,0 "/>
</g>

<g fill="#ffffff" fill-opacity="1" stroke="#ffffff" stroke-opacity="1" stroke-width="1" stroke-linecap="square" stroke-linejoin="bevel" transform="matrix(1,0,0,1,0,0)"
font-family=".SF NS Text" font-size="26.7222" font-weight="400" font-style="normal" 
>
</g>

<g fill="none" stroke="#ffffff" stroke-opacity="1" stroke-width="1" stroke-linecap="square" stroke-linejoin="bevel" transform="matrix(1,0,0,1,980.67,695.036)"
font-family=".SF NS Text" font-size="26.7222" font-weight="400" font-style="normal" 
>
<path vector-effect="non-scaling-stroke" fill-rule="evenodd" d="M11.489,0 C11.489,-6.34522 6.34522,-11.489 0,-11.489 C-6.34522,-11.489 -11.489,-6.34522 -11.489,0 C-11.489,6.34522 -6.34522,11.489 0,11.489 C6.34522,11.489 11.489,6.34522 11.489,0 "/>
</g>

<g fill="#ffffff" fill-opacity="1" stroke="#ffffff" stroke-opacity="1" stroke-width="1" stroke-linecap="square" stroke-linejoin="bevel" transform="matrix(1,0,0,1,0,0)"
font-family=".SF NS Text" font-size="26.7222" font-weight="400" font-style="normal" 
>
</g>

<g fill="none" stroke="#ffffff" stroke-opacity="1" stroke-width="1" stroke-linecap="square" stroke-linejoin="bevel" transform="matrix(1,0,0,1,1042.11,652.639)"
font-family=".SF NS Text" font-size="26.7222" font-weight="400" font-style="normal" 
>
<path vector-effect="non-scaling-stroke" fill-rule="evenodd" d="M11.489,0 C11.489,-6.34522 6.34522,-11.489 0,-11.489 C-6.34522,-11.489 -11.489,-6.34522 -11.489,0 C-11.489,6.34522 -6.34522,11.489 0,11.489 C6.34522,11.489 11.489,6.34522 11.489,0 "/>
</g>

<g fill="#ffffff" fill-opacity="1" stroke="#ffffff" stroke-opacity="1" stroke-width="1" stroke-linecap="square" stroke-linejoin="bevel" transform="matrix(1,0,0,1,0,0)"
font-family=".SF NS Text" font-size="26.7222" font-weight="400" font-style="normal" 
>
</g>

<g fill="none" stroke="#ffffff" stroke-opacity="1" stroke-width="1" stroke-linecap="square" stroke-linejoin="bevel" transform="matrix(1,0,0,1,996.284,459.613)"
font-family=".SF NS Text" font-size="26.7222" font-weight="400" font-style="normal" 
>
<path vector-effect="non-scaling-stroke" fill-rule="evenodd" d="M11.489,0 C11.489,-6.34522 6.34522,-11.489 0,-11.489 C-6.34522,-11.489 -11.489,-6.34522 -11.489,0 C-11.489,6.34522 -6.34522,11.489 0,11.489 C6.34522,11.489 11.489,6.34522 11.489,0 "/>
</g>

<g fill="#ffffff" fill-opacity="1" stroke="#ffffff" stroke-opacity="1" stroke-width="1" stroke-linecap="square" stroke-linejoin="bevel" transform="matrix(1,0,0,1,0,0)"
font-family=".SF NS Text" font-size="26.7222" font-weight="400" font-style="normal" 
>
</g>

<g fill="none" stroke="#ffffff" stroke-opacity="1" stroke-width="1" stroke-linecap="square" stroke-linejoin="bevel" transform="matrix(1,0,0,1,966.674,552.672)"
font-family=".SF NS Text" font-size="26.7222" font-weight="400" font-style="normal" 
>
<path vector-effect="non-scaling-stroke" fill-rule="evenodd" d="M11.489,0 C11.489,-6.34522 6.34522,-11.489 0,-11.489 C-6.34522,-11.489 -11.489,-6.34522 -11.489,0 C-11.489,6.34522 -6.34522,11.489 0,11.489 C6.34522,11.489 11.489,6.34522 11.489,0 "/>
</g>

<g fill="#ffffff" fill-opacity="1" stroke="#ffffff" stroke-opacity="1" stroke-width="1" stroke-linecap="square" stroke-linejoin="bevel" transform="matrix(1,0,0,1,0,0)"
font-family=".SF NS Text" font-size="26.7222" font-weight="400" font-style="normal" 
>
<polyline fill="none" vector-effect="non-scaling-stroke" points="994.357,522.297 967.047,513.607 966.416,513.386 965.8,513.129 965.199,512.836 964.616,512.509 964.053,512.148 963.513,511.755 962.995,511.332 962.504,510.879 962.04,510.399 961.604,509.892 961.198,509.361 960.825,508.807 960.484,508.232 960.177,507.638 959.905,507.028 959.668,506.403 959.469,505.765 959.307,505.116 959.183,504.46 959.098,503.797 959.051,503.13 959.043,502.462 959.074,501.794 959.144,501.129 959.252,500.47 959.398,499.818 959.582,499.175 959.803,498.545 960.061,497.928 960.354,497.327 960.681,496.745 961.041,496.182 961.434,495.641 961.857,495.124 962.31,494.632 962.791,494.168 963.298,493.732 963.829,493.327 964.383,492.953 964.958,492.612 965.551,492.305 966.162,492.033 966.787,491.797 967.425,491.598 968.073,491.436 968.73,491.312 969.393,491.226 970.059,491.18 970.728,491.172 971.395,491.203 972.06,491.272 972.719,491.38 973.372,491.527 974.014,491.711 1001.32,500.4 1001.95,500.621 1002.57,500.879 1003.17,501.171 1003.75,501.499 1004.32,501.859 1004.86,502.252 1005.38,502.675 1005.87,503.128 1006.33,503.609 1006.77,504.116 1007.17,504.647 1007.55,505.201 1007.89,505.775 1008.19,506.369 1008.47,506.98 1008.7,507.605 1008.9,508.243 1009.06,508.891 1009.19,509.548 1009.27,510.211 1009.32,510.877 1009.33,511.546 1009.3,512.213 1009.23,512.878 1009.12,513.537 1008.97,514.189 1008.79,514.832 1008.57,515.463 1008.31,516.079 1008.02,516.68 1007.69,517.263 1007.33,517.826 1006.94,518.366 1006.51,518.883 1006.06,519.375 1005.58,519.839 1005.07,520.275 1004.54,520.68 1003.99,521.054 1003.41,521.395 1002.82,521.702 1002.21,521.974 1001.58,522.21 1000.95,522.41 1000.3,522.572 999.641,522.695 998.978,522.781 998.311,522.828 997.643,522.836 996.975,522.805 996.311,522.735 995.651,522.627 994.999,522.481 994.357,522.297 " />
</g>

<g fill="none" stroke="#ffffff" stroke-opacity="1" stroke-width="1" stroke-linecap="square" stroke-linejoin="bevel" transform="matrix(1,0,0,1,990.93,560.555)"
font-family=".SF NS Text" font-size="26.7222" font-weight="400" font-style="normal" 
>
<path vector-effect="non-scaling-stroke" fill-rule="evenodd" d="M10.5378,0 C10.5378,-5.81988 5.81988,-10.5378 0,-10.5378 C-5.81988,-10.5378 -10.5378,-5.81988 -10.5378,0 C-10.5378,5.81988 -5.81988,10.5378 0,10.5378 C5.81988,10.5378 10.5378,5.81988 10.5378,0 "/>
</g>

<g fill="#ffffff" fill-opacity="1" stroke="#ffffff" stroke-opacity="1" stroke-width="1" stroke-linecap="square" stroke-linejoin="bevel" transform="matrix(1,0,0,1,0,0)"
font-family=".SF NS Text" font-size="26.7222" font-weight="400" font-style="normal" 
>
</g>

<g fill="none" stroke="#ffffff" stroke-opacity="1" stroke-width="1" stroke-linecap="square" stroke-linejoin="bevel" transform="matrix(1,0,0,1,1018.37,454.445)"
font-family=".SF NS Text" font-size="26.7222" font-weight="400" font-style="normal" 
>
<path vector-effect="non-scaling-stroke" fill-rule="evenodd" d="M10.5378,0 C10.5378,-5.81988 5.81988,-10.5378 0,-10.5378 C-5.81988,-10.5378 -10.5378,-5.81988 -10.5378,0 C-10.5378,5.81988 -5.81988,10.5378 0,10.5378 C5.81988,10.5378 10.5378,5.81988 10.5378,0 "/>
</g>

<g fill="#ffffff" fill-opacity="1" stroke="#ffffff" stroke-opacity="1" stroke-width="1" stroke-linecap="square" stroke-linejoin="bevel" transform="matrix(1,0,0,1,0,0)"
font-family=".SF NS Text" font-size="26.7222" font-weight="400" font-style="normal" 
>
</g>

<g fill="none" stroke="#ffffff" stroke-opacity="1" stroke-width="1" stroke-linecap="square" stroke-linejoin="bevel" transform="matrix(1,0,0,1,1015.98,427.363)"
font-family=".SF NS Text" font-size="26.7222" font-weight="400" font-style="normal" 
>
<path vector-effect="non-scaling-stroke" fill-rule="evenodd" d="M3.59147,0 C3.59147,-1.98352 1.98352,-3.59147 0,-3.59147 C-1.98352,-3.59147 -3.59147,-1.98352 -3.59147,0 C-3.59147,1.98352 -1.98352,3.59147 0,3.59147 C1.98352,3.59147 3.59147,1.98352 3.59147,0 "/>
</g>

<g fill="#ffffff" fill-opacity="1" stroke="#ffffff" stroke-opacity="1" stroke-width="1" stroke-linecap="square" stroke-linejoin="bevel" transform="matrix(1,0,0,1,0,0)"
font-family=".SF NS Text" font-size="26.7222" font-weight="400" font-style="normal" 
>
</g>

<g fill="none" stroke="#ffffff" stroke-opacity="1" stroke-width="1" stroke-linecap="square" stroke-linejoin="bevel" transform="matrix(1,0,0,1,1020.23,505.064)"
font-family=".SF NS Text" font-size="26.7222" font-weight="400" font-style="normal" 
>
<path vector-effect="non-scaling-stroke" fill-rule="evenodd" d="M3.59147,0 C3.59147,-1.98352 1.98352,-3.59147 0,-3.59147 C-1.98352,-3.59147 -3.59147,-1.98352 -3.59147,0 C-3.59147,1.98352 -1.98352,3.59147 0,3.59147 C1.98352,3.59147 3.59147,1.98352 3.59147,0 "/>
</g>

<g fill="#ffffff" fill-opacity="1" stroke="#ffffff" stroke-opacity="1" stroke-width="1" stroke-linecap="square" stroke-linejoin="bevel" transform="matrix(1,0,0,1,0,0)"
font-family=".SF NS Text" font-size="26.7222" font-weight="400" font-style="normal" 
>
</g>

<g fill="none" stroke="#ffffff" stroke-opacity="1" stroke-width="1" stroke-linecap="square" stroke-linejoin="bevel" transform="matrix(1,0,0,1,1015.39,552.084)"
font-family=".SF NS Text" font-size="26.7222" font-weight="400" font-style="normal" 
>
<path vector-effect="non-scaling-stroke" fill-rule="evenodd" d="M3.59147,0 C3.59147,-1.98352 1.98352,-3.59147 0,-3.59147 C-1.98352,-3.59147 -3.59147,-1.98352 -3.59147,0 C-3.59147,1.98352 -1.98352,3.59147 0,3.59147 C1.98352,3.59147 3.59147,1.98352 3.59147,0 "/>
</g>

<g fill="#ffffff" fill-opacity="1" stroke="#ffffff" stroke-opacity="1" stroke-width="1" stroke-linecap="square" stroke-linejoin="bevel" transform="matrix(1,0,0,1,0,0)"
font-family=".SF NS Text" font-size="26.7222" font-weight="400" font-style="normal" 
>
</g>

<g fill="none" stroke="#ffffff" stroke-opacity="1" stroke-width="1" stroke-linecap="square" stroke-linejoin="bevel" transform="matrix(1,0,0,1,955.055,593.908)"
font-family=".SF NS Text" font-size="26.7222" font-weight="400" font-style="normal" 
>
<path vector-effect="non-scaling-stroke" fill-rule="evenodd" d="M3.59147,0 C3.59147,-1.98352 1.98352,-3.59147 0,-3.59147 C-1.98352,-3.59147 -3.59147,-1.98352 -3.59147,0 C-3.59147,1.98352 -1.98352,3.59147 0,3.59147 C1.98352,3.59147 3.59147,1.98352 3.59147,0 "/>
</g>

<g fill="#ffffff" fill-opacity="1" stroke="#ffffff" stroke-opacity="1" stroke-width="1" stroke-linecap="square" stroke-linejoin="bevel" transform="matrix(1,0,0,1,0,0)"
font-family=".SF NS Text" font-size="26.7222" font-weight="400" font-style="normal" 
>
</g>

<g fill="none" stroke="#ffffff" stroke-opacity="1" stroke-width="1" stroke-linecap="square" stroke-linejoin="bevel" transform="matrix(1,0,0,1,403.859,283.965)"
font-family=".SF NS Text" font-size="26.7222" font-weight="400" font-style="normal" 
>
<path vector-effect="non-scaling-stroke" fill-rule="evenodd" d="M3.59147,0 C3.59147,-1.98352 1.98352,-3.59147 0,-3.59147 C-1.98352,-3.59147 -3.59147,-1.98352 -3.59147,0 C-3.59147,1.98352 -1.98352,3.59147 0,3.59147 C1.98352,3.59147 3.59147,1.98352 3.59147,0 "/>
</g>

<g fill="#ffffff" fill-opacity="1" stroke="#ffffff" stroke-opacity="1" stroke-width="1" stroke-linecap="square" stroke-linejoin="bevel" transform="matrix(1,0,0,1,0,0)"
font-family=".SF NS Text" font-size="26.7222" font-weight="400" font-style="normal" 
>
<polyline fill="none" vector-effect="non-scaling-stroke" points="367.351,352.603 367.351,327.031 367.37,326.726 367.427,326.425 367.52,326.134 367.649,325.857 367.812,325.598 368.006,325.361 368.227,325.15 368.473,324.968 368.74,324.818 369.023,324.702 369.318,324.622 369.621,324.58 369.927,324.575 370.231,324.609 370.529,324.68 370.815,324.788 371.086,324.93 371.337,325.104 371.564,325.309 371.765,325.54 371.935,325.795 372.072,326.068 372.174,326.357 372.24,326.655 372.24,352.603 372.221,352.912 372.165,353.217 372.072,353.512 371.944,353.794 371.783,354.059 371.591,354.302 371.371,354.52 371.126,354.709 370.86,354.868 370.577,354.993 370.28,355.083 369.975,355.136 369.666,355.152 369.357,355.13 369.053,355.071 368.759,354.976 368.478,354.845 368.215,354.681 367.974,354.487 367.758,354.265 367.571,354.018 367.415,353.751 367.293,353.466 367.206,353.169 367.155,352.863 367.143,352.554 367.167,352.245 " />
</g>

<g fill="none" stroke="#ffffff" stroke-opacity="1" stroke-width="1" stroke-linecap="square" stroke-linejoin="bevel" transform="matrix(1,0,0,1,1128.17,238.315)"
font-family=".SF NS Text" font-size="26.7222" font-weight="400" font-style="normal" 
>
<path vector-effect="non-scaling-stroke" fill-rule="evenodd" d="M3.59147,0 C3.59147,-1.98352 1.98352,-3.59147 0,-3.59147 C-1.98352,-3.59147 -3.59147,-1.98352 -3.59147,0 C-3.59147,1.98352 -1.98352,3.59147 0,3.59147 C1.98352,3.59147 3.59147,1.98352 3.59147,0 "/>
</g>

<g fill="#ffffff" fill-opacity="1" stroke="#ffffff" stroke-opacity="1" stroke-width="1" stroke-linecap="square" stroke-linejoin="bevel" transform="matrix(1,0,0,1,0,0)"
font-family=".SF NS Text" font-size="26.7222" font-weight="400" font-style="normal" 
>
<polyline fill="none" vector-effect="non-scaling-stroke" points="1160.22,366.036 1160.22,328.731 1160.24,328.399 1160.3,328.072 1160.4,327.754 1160.53,327.448 1160.69,327.161 1160.89,326.894 1161.12,326.652 1161.38,326.439 1161.65,326.256 1161.95,326.107 1162.26,325.993 1162.59,325.917 1162.92,325.878 1163.25,325.878 1163.58,325.917 1163.9,325.993 1164.21,326.107 1164.51,326.256 1164.79,326.439 1165.04,326.652 1165.27,326.894 1165.47,327.161 1165.64,327.448 1165.77,327.754 1165.86,328.072 1165.92,328.399 1165.94,328.731 1165.94,366.036 1165.92,366.368 1165.86,366.695 1165.77,367.014 1165.64,367.319 1165.47,367.607 1165.27,367.873 1165.04,368.115 1164.79,368.329 1164.51,368.511 1164.21,368.66 1163.9,368.774 1163.58,368.851 1163.25,368.889 1162.92,368.889 1162.59,368.851 1162.26,368.774 1161.95,368.66 1161.65,368.511 1161.38,368.329 1161.12,368.115 1160.89,367.873 1160.69,367.607 1160.53,367.319 1160.4,367.014 1160.3,366.695 1160.24,366.368 1160.22,366.036 " />
<polyline fill="none" vector-effect="non-scaling-stroke" points="416.43,239.116 443.802,94.8062 443.955,94.1362 444.146,93.4761 444.374,92.828 444.64,92.1942 444.941,91.5767 445.277,90.9775 445.648,90.3987 446.051,89.8422 446.485,89.3097 446.949,88.8031 447.442,88.324 447.961,87.8741 448.506,87.4548 449.073,87.0675 449.662,86.7135 450.271,86.3939 450.896,86.1099 451.537,85.8623 452.191,85.652 452.857,85.4796 453.531,85.3458 454.211,85.251 454.896,85.1955 455.583,85.1795 456.27,85.203 456.954,85.266 457.634,85.3682 458.306,85.5093 458.969,85.6889 459.621,85.9064 460.259,86.1609 460.882,86.4518 461.487,86.7779 462.072,87.1384 462.635,87.5318 463.175,87.9571 463.689,88.4126 464.177,88.897 464.635,89.4087 465.064,89.9458 465.461,90.5067 465.825,91.0896 466.155,91.6924 466.449,92.3131 466.708,92.9498 466.929,93.6003 467.113,94.2625 467.258,94.9341 467.365,95.613 467.432,96.2968 467.46,96.9834 467.448,97.6705 467.396,98.3557 467.306,99.0368 440.484,244.558 440.396,245.255 440.269,245.946 440.103,246.629 439.899,247.301 439.657,247.961 439.379,248.606 439.064,249.234 438.714,249.844 438.33,250.432 437.914,250.998 437.466,251.54 436.989,252.055 436.483,252.543 435.95,253.001 435.393,253.429 434.812,253.824 434.209,254.186 433.587,254.513 432.948,254.805 432.293,255.059 431.625,255.277 430.946,255.456 430.257,255.597 429.562,255.699 428.862,255.761 428.16,255.783 427.457,255.766 426.757,255.709 426.061,255.613 425.371,255.477 424.691,255.303 424.021,255.09 423.364,254.84 422.723,254.553 422.098,254.231 421.493,253.873 420.91,253.482 420.349,253.059 419.813,252.605 419.303,252.121 418.822,251.609 418.37,251.07 417.95,250.507 417.562,249.922 417.207,249.315 416.888,248.689 416.605,248.046 416.358,247.388 416.149,246.717 415.978,246.036 415.846,245.345 415.753,244.649 415.699,243.948 415.686,243.246 415.712,242.544 415.777,241.844 415.882,241.149 416.027,240.461 416.209,239.783 416.43,239.116 " />
<polyline fill="none" vector-effect="non-scaling-stroke" points="1124.65,195.79 1097.28,51.4806 1097.13,50.8106 1096.94,50.1505 1096.71,49.5025 1096.44,48.8686 1096.14,48.2511 1095.81,47.652 1095.43,47.0732 1095.03,46.5166 1094.6,45.9841 1094.13,45.4775 1093.64,44.9985 1093.12,44.5486 1092.58,44.1292 1092.01,43.7419 1091.42,43.3879 1090.81,43.0684 1090.19,42.7843 1089.55,42.5367 1088.89,42.3264 1088.23,42.1541 1087.55,42.0203 1086.87,41.9255 1086.19,41.87 1085.5,41.8539 1084.81,41.8774 1084.13,41.9404 1083.45,42.0426 1082.78,42.1838 1082.11,42.3634 1081.46,42.5808 1080.82,42.8354 1080.2,43.1262 1079.6,43.4524 1079.01,43.8128 1078.45,44.2063 1077.91,44.6315 1077.39,45.0871 1076.91,45.5715 1076.45,46.0831 1076.02,46.6203 1075.62,47.1812 1075.26,47.764 1074.93,48.3668 1074.63,48.9876 1074.37,49.6243 1074.15,50.2748 1073.97,50.9369 1073.82,51.6085 1073.72,52.2874 1073.65,52.9713 1073.62,53.6579 1073.63,54.3449 1073.69,55.0301 1073.78,55.7113 1100.6,201.232 1100.69,201.929 1100.81,202.62 1100.98,203.303 1101.18,203.976 1101.43,204.635 1101.7,205.28 1102.02,205.909 1102.37,206.518 1102.75,207.107 1103.17,207.673 1103.62,208.214 1104.09,208.73 1104.6,209.218 1105.13,209.676 1105.69,210.103 1106.27,210.499 1106.87,210.86 1107.5,211.188 1108.13,211.479 1108.79,211.734 1109.46,211.951 1110.14,212.131 1110.83,212.272 1111.52,212.373 1112.22,212.435 1112.92,212.458 1113.63,212.44 1114.33,212.383 1115.02,212.287 1115.71,212.151 1116.39,211.977 1117.06,211.764 1117.72,211.514 1118.36,211.228 1118.98,210.905 1119.59,210.548 1120.17,210.157 1120.73,209.733 1121.27,209.279 1121.78,208.795 1122.26,208.283 1122.71,207.745 1123.13,207.182 1123.52,206.596 1123.88,205.989 1124.19,205.363 1124.48,204.72 1124.72,204.062 1124.93,203.392 1125.1,202.71 1125.24,202.02 1125.33,201.323 1125.38,200.623 1125.4,199.92 1125.37,199.218 1125.31,198.518 1125.2,197.824 1125.06,197.136 1124.87,196.457 1124.65,195.79 " />
<polyline fill="none" vector-effect="non-scaling-stroke" points="340.194,1056.99 340.194,929.117 390.605,929.117 390.605,985.22 475.373,1056.76 340.194,1056.99 " />
<polyline fill="none" vector-effect="non-scaling-stroke" points="572.82,1056.8 572.82,929.4 734.517,929.4 846.602,1056.8 572.82,1056.8 " />
<polyline fill="none" vector-effect="non-scaling-stroke" points="1178.04,1057 1178.04,857.942 1205.99,857.942 1205.99,781.381 1217.09,781.381 1217.09,858.325 1234.32,858.325 1234.32,920.722 1270.68,920.722 1270.68,1057 1178.04,1057 " />
<polyline fill="none" vector-effect="non-scaling-stroke" points="340.194,1056.99 340.194,-1.13687e-13 1270.81,-1.13687e-13 1270.81,1056.99 340.194,1056.99 " />
<polyline fill="none" vector-effect="non-scaling-stroke" points="1176.78,811.323 1144.9,760.327 807.758,970.663 839.693,1022.07 1176.78,811.323 " />
</g>

<g fill="none" stroke="#ffffff" stroke-opacity="1" stroke-width="1" stroke-linecap="square" stroke-linejoin="bevel" transform="matrix(1,0,0,1,1131.09,17.2481)"
font-family=".SF NS Text" font-size="26.7222" font-weight="400" font-style="normal" 
>
<path vector-effect="non-scaling-stroke" fill-rule="evenodd" d="M4.2969,0 C4.2969,-2.37311 2.37311,-4.2969 0,-4.2969 C-2.37311,-4.2969 -4.2969,-2.37311 -4.2969,0 C-4.2969,2.37311 -2.37311,4.2969 0,4.2969 C2.37311,4.2969 4.2969,2.37311 4.2969,0 "/>
</g>

<g fill="#ffffff" fill-opacity="1" stroke="#ffffff" stroke-opacity="1" stroke-width="1" stroke-linecap="square" stroke-linejoin="bevel" transform="matrix(1,0,0,1,0,0)"
font-family=".SF NS Text" font-size="26.7222" font-weight="400" font-style="normal" 
>
</g>

<g fill="none" stroke="#ffffff" stroke-opacity="1" stroke-width="1" stroke-linecap="square" stroke-linejoin="bevel" transform="matrix(1,0,0,1,426.399,389.433)"
font-family=".SF NS Text" font-size="26.7222" font-weight="400" font-style="normal" 
>
<path vector-effect="non-scaling-stroke" fill-rule="evenodd" d="M4.2969,0 C4.2969,-2.37311 2.37311,-4.2969 0,-4.2969 C-2.37311,-4.2969 -4.2969,-2.37311 -4.2969,0 C-4.2969,2.37311 -2.37311,4.2969 0,4.2969 C2.37311,4.2969 4.2969,2.37311 4.2969,0 "/>
</g>

<g fill="#ffffff" fill-opacity="1" stroke="#ffffff" stroke-opacity="1" stroke-width="1" stroke-linecap="square" stroke-linejoin="bevel" transform="matrix(1,0,0,1,0,0)"
font-family=".SF NS Text" font-size="26.7222" font-weight="400" font-style="normal" 
>
</g>

<g fill="none" stroke="#ffffff" stroke-opacity="1" stroke-width="1" stroke-linecap="square" stroke-linejoin="bevel" transform="matrix(1,0,0,1,1094.1,388.087)"
font-family=".SF NS Text" font-size="26.7222" font-weight="400" font-style="normal" 
>
<path vector-effect="non-scaling-stroke" fill-rule="evenodd" d="M4.2969,0 C4.2969,-2.37311 2.37311,-4.2969 0,-4.2969 C-2.37311,-4.2969 -4.2969,-2.37311 -4.2969,0 C-4.2969,2.37311 -2.37311,4.2969 0,4.2969 C2.37311,4.2969 4.2969,2.37311 4.2969,0 "/>
</g>

<g fill="#ffffff" fill-opacity="1" stroke="#ffffff" stroke-opacity="1" stroke-width="1" stroke-linecap="square" stroke-linejoin="bevel" transform="matrix(1,0,0,1,0,0)"
font-family=".SF NS Text" font-size="26.7222" font-weight="400" font-style="normal" 
>
</g>

<g fill="none" stroke="#ffffff" stroke-opacity="1" stroke-width="1" stroke-linecap="square" stroke-linejoin="bevel" transform="matrix(1,0,0,1,445.246,46.1575)"
font-family=".SF NS Text" font-size="26.7222" font-weight="400" font-style="normal" 
>
<path vector-effect="non-scaling-stroke" fill-rule="evenodd" d="M4.2969,0 C4.2969,-2.37311 2.37311,-4.2969 0,-4.2969 C-2.37311,-4.2969 -4.2969,-2.37311 -4.2969,0 C-4.2969,2.37311 -2.37311,4.2969 0,4.2969 C2.37311,4.2969 4.2969,2.37311 4.2969,0 "/>
</g>

<g fill="#ffffff" fill-opacity="1" stroke="#ffffff" stroke-opacity="1" stroke-width="1" stroke-linecap="square" stroke-linejoin="bevel" transform="matrix(1,0,0,1,0,0)"
font-family=".SF NS Text" font-size="26.7222" font-weight="400" font-style="normal" 
>
<polyline fill="none" vector-effect="non-scaling-stroke" points="386.604,605.185 386.604,537.996 386.623,537.618 386.68,537.243 386.775,536.876 386.907,536.521 387.074,536.18 387.274,535.859 387.506,535.559 387.767,535.284 388.055,535.037 388.366,534.821 388.698,534.637 389.046,534.487 389.408,534.374 389.779,534.298 390.156,534.259 390.535,534.259 390.912,534.298 391.283,534.374 391.645,534.487 391.993,534.637 392.325,534.821 392.636,535.037 392.923,535.284 393.184,535.559 393.416,535.859 393.617,536.18 393.784,536.521 393.916,536.876 394.011,537.243 394.068,537.618 394.087,537.996 394.087,605.185 394.068,605.563 394.011,605.938 393.916,606.305 393.784,606.66 393.617,607 393.416,607.322 393.184,607.622 392.923,607.896 392.636,608.143 392.325,608.36 391.993,608.544 391.645,608.693 391.283,608.807 390.912,608.883 390.535,608.921 390.156,608.921 389.779,608.883 389.408,608.807 389.046,608.693 388.698,608.544 388.366,608.36 388.055,608.143 387.767,607.896 387.506,607.622 387.274,607.322 387.074,607 386.907,606.66 386.775,606.305 386.68,605.938 386.623,605.563 386.604,605.185 " />
<polyline fill="none" vector-effect="non-scaling-stroke" points="456.507,566.039 456.507,498.85 456.526,498.472 456.583,498.097 456.678,497.73 456.81,497.375 456.977,497.034 457.177,496.713 457.409,496.413 457.671,496.138 457.958,495.891 458.269,495.675 458.601,495.491 458.949,495.342 459.311,495.228 459.682,495.152 460.059,495.113 460.438,495.113 460.815,495.152 461.186,495.228 461.548,495.342 461.896,495.491 462.228,495.675 462.539,495.891 462.826,496.138 463.088,496.413 463.32,496.713 463.52,497.034 463.687,497.375 463.819,497.73 463.914,498.097 463.971,498.472 463.99,498.85 463.99,566.039 463.971,566.417 463.914,566.792 463.819,567.159 463.687,567.514 463.52,567.855 463.32,568.176 463.088,568.476 462.826,568.751 462.539,568.998 462.228,569.214 461.896,569.398 461.548,569.548 461.186,569.661 460.815,569.737 460.438,569.776 460.059,569.776 459.682,569.737 459.311,569.661 458.949,569.548 458.601,569.398 458.269,569.214 457.958,568.998 457.671,568.751 457.409,568.476 457.177,568.176 456.977,567.855 456.81,567.514 456.678,567.159 456.583,566.792 456.526,566.417 456.507,566.039 " />
<polyline fill="none" vector-effect="non-scaling-stroke" points="1057.55,566.205 1057.55,499.016 1057.57,498.638 1057.63,498.263 1057.72,497.896 1057.85,497.541 1058.02,497.2 1058.22,496.879 1058.45,496.579 1058.71,496.304 1059,496.057 1059.31,495.841 1059.64,495.657 1059.99,495.507 1060.35,495.394 1060.72,495.318 1061.1,495.279 1061.48,495.279 1061.86,495.318 1062.23,495.394 1062.59,495.507 1062.94,495.657 1063.27,495.841 1063.58,496.057 1063.87,496.304 1064.13,496.579 1064.36,496.879 1064.56,497.2 1064.73,497.541 1064.86,497.896 1064.96,498.263 1065.01,498.638 1065.03,499.016 1065.03,566.205 1065.01,566.583 1064.96,566.958 1064.86,567.325 1064.73,567.68 1064.56,568.02 1064.36,568.342 1064.13,568.642 1063.87,568.917 1063.58,569.163 1063.27,569.38 1062.94,569.564 1062.59,569.713 1062.23,569.827 1061.86,569.903 1061.48,569.941 1061.1,569.941 1060.72,569.903 1060.35,569.827 1059.99,569.713 1059.64,569.564 1059.31,569.38 1059,569.163 1058.71,568.917 1058.45,568.642 1058.22,568.342 1058.02,568.02 1057.85,567.68 1057.72,567.325 1057.63,566.958 1057.57,566.583 1057.55,566.205 " />
<polyline fill="none" vector-effect="non-scaling-stroke" points="1127.45,605.35 1127.45,538.162 1127.47,537.783 1127.53,537.409 1127.62,537.042 1127.76,536.686 1127.92,536.346 1128.12,536.024 1128.35,535.725 1128.62,535.45 1128.9,535.203 1129.21,534.987 1129.55,534.803 1129.89,534.653 1130.26,534.54 1130.63,534.463 1131,534.425 1131.38,534.425 1131.76,534.463 1132.13,534.54 1132.49,534.653 1132.84,534.803 1133.17,534.987 1133.48,535.203 1133.77,535.45 1134.03,535.725 1134.27,536.024 1134.47,536.346 1134.63,536.686 1134.76,537.042 1134.86,537.409 1134.92,537.783 1134.94,538.162 1134.94,605.35 1134.92,605.729 1134.86,606.104 1134.76,606.47 1134.63,606.826 1134.47,607.166 1134.27,607.488 1134.03,607.788 1133.77,608.062 1133.48,608.309 1133.17,608.526 1132.84,608.71 1132.49,608.859 1132.13,608.973 1131.76,609.049 1131.38,609.087 1131,609.087 1130.63,609.049 1130.26,608.973 1129.89,608.859 1129.55,608.71 1129.21,608.526 1128.9,608.309 1128.62,608.062 1128.35,607.788 1128.12,607.488 1127.92,607.166 1127.76,606.826 1127.62,606.47 1127.53,606.104 1127.47,605.729 1127.45,605.35 " />
</g>

<g fill="none" stroke="#000000" stroke-opacity="1" stroke-width="1" stroke-linecap="square" stroke-linejoin="bevel" transform="matrix(1,0,0,1,0,0)"
font-family=".SF NS Text" font-size="26.7222" font-weight="400" font-style="normal" 
>
</g>
</g>
</svg>
